<?xml version="1.0" encoding="iso-8859-1"?>
<!-- Generator: Adobe Illustrator 13.0.2, SVG Export Plug-In . SVG Version: 6.00 Build 14948)  -->
<!DOCTYPE svg PUBLIC "-//W3C//DTD SVG 1.1//EN" "http://www.w3.org/Graphics/SVG/1.1/DTD/svg11.dtd">
<svg version="1.1" id="Layer_1" xmlns="http://www.w3.org/2000/svg" xmlns:xlink="http://www.w3.org/1999/xlink" x="0px" y="0px"
	 width="378.781px" height="120.18px" viewBox="0 0 378.781 120.18" style="enable-background:new 0 0 378.781 120.18;"
	 xml:space="preserve">
<path style="fill:#010101;" d="M364.028,23.501c-2.312-2.315-4.626-4.63-6.938-6.945c-1.109-1.111-2.221-2.223-3.331-3.334
	c-0.948-0.948-1.724-2.089-2.821-2.879c-2.204-1.586-5.109-1.953-7.72-2.368c-3.142-0.5-6.286-0.948-9.456-1.232
	c-3.189-0.287-6.391-0.477-9.592-0.567c-1.474-0.042-2.953,0.021-4.426-0.061c-1.604-0.091-3.194-0.268-4.804-0.289
	c-6.536-0.09-13.079-0.006-19.615-0.006c-26.613,0-53.228,0-79.839-0.001c-26.616,0-53.232,0-79.849,0c-26.606,0-53.212,0-79.819,0
	c-6.547,0-13.095,0-19.642,0c-1.545,0-3.098-0.075-4.641,0.021c-0.613,0.038-1.327,0.211-1.914-0.05
	c-0.594-0.266-0.925-0.867-1.375-1.305c-1.104-1.073-2.207-2.147-3.311-3.222c-0.37-0.36-0.677-0.818-1.163-1.036
	c-0.603-0.27-1.33-0.174-1.967-0.136c-0.71,0.042-1.424,0.017-2.135,0.014c-0.494-0.002-1.19-0.174-1.673-0.066
	c-0.77,0.171-0.212,3.492-0.204,4.107c0.02,1.556-0.017,3.109-0.033,4.664c-0.008,0.77,0.044,1.534,0.057,2.302
	c0.014,0.789-0.403,1.487-0.705,2.188c-2.586,6.029-5.173,12.058-7.76,18.087C6.774,37.394,4.197,43.402,1.62,49.409
	c-0.537,1.251-1.171,2.482-1.436,3.831c-0.287,1.46-0.182,2.974-0.08,4.446c0.215,3.105,1.473,6.153,2.32,9.13
	c1.801,6.33,3.627,12.653,5.441,18.979c0.914,3.187,1.827,6.372,2.74,9.558c0.203,0.707,0.421,1.409,0.621,2.117
	c0.178,0.63,0.177,1.358,0.469,1.948c0.374,0.756,1.73,0.57,2.396,0.516c2.871-0.235,5.797-0.083,8.677-0.083c3.33,0,6.66,0,9.99,0
	c6.66,0,13.32,0,19.979,0c13.32,0,26.64,0,39.96,0c26.573,0,53.146-0.001,79.719-0.001c26.545,0,53.091,0,79.637,0
	c26.631,0,53.262-0.001,79.894-0.001c6.629,0,13.258,0,19.888,0c3.312,0,6.626,0,9.938,0c1.591,0,3.181,0,4.771,0
	c1.293,0,3.137,0.399,4.097-0.675c0.923-1.032,1.859-2.045,2.84-3.026c0.878-0.881,2.424-1.631,2.368-3.025
	c-0.119-3.098-0.114-6.159-0.084-9.259c0.068-6.576,0.014-13.155,0.019-19.731c0-1.531,0.141-3.069,0.072-4.599
	c-0.075-1.664-0.881-3.1-1.433-4.645c-1.206-3.374-2.225-6.811-3.343-10.213C368.759,37.607,366.384,30.557,364.028,23.501"/>
<g>
	<path style="fill:#686968;" d="M311.062,99.875c0-10.201-5.74-20.024-14.523-25.172c-2.581-1.514-5.396-2.618-8.312-3.278
		c-1.429-0.322-2.873-0.541-4.336-0.607c-0.607-0.027-1.23,0.063-1.828-0.086c-0.651-0.163-1.166-0.311-1.854-0.262
		c-5.656,0.403-11.31,2.411-15.87,5.781c-7.349,5.432-11.889,14.378-11.889,23.521C271.986,99.806,291.525,99.833,311.062,99.875"/>
</g>
<g>
	<path style="fill:#010101;" d="M305.186,96.834c-0.408-5.318-1.914-10.663-5.408-14.806c-3.439-4.075-8.363-7.023-13.596-8.064
		c-9.931-1.977-20.306,3.391-24.945,12.288c-4.35,8.34-3.03,18.988,3.24,26.004c3.517,3.935,8.502,6.717,13.7,7.616
		c5.417,0.938,11.087-0.312,15.741-3.196C300.911,112.341,304.568,104.881,305.186,96.834"/>
</g>
<g>
	<path style="fill:#FFFFFF;" d="M296.371,96.834c-0.452-4.953-2.803-9.772-7.171-12.38c-4.679-2.793-10.611-2.625-15.197,0.265
		c-4.711,2.967-7.503,8.792-6.483,14.339c0.867,4.719,4.011,8.859,8.338,10.939c4.533,2.18,9.846,1.634,13.986-1.161
		C293.88,106.11,295.938,101.585,296.371,96.834"/>
</g>
<g>
	<path style="fill:#848484;" d="M280.116,111.292c-4.902-0.895-9.363-3.836-11.441-8.461c-2.216-4.934-1.479-10.876,1.931-15.084
		c3.133-3.866,8.234-5.964,13.183-5.312c4.726,0.625,8.808,3.769,10.948,7.979c1.261,2.479,2.076,5.349,1.604,8.137
		c-0.437,2.574-1.452,5.062-3.049,7.137C290.204,109.702,285.125,111.744,280.116,111.292 M280.145,82.525
		c-4.896,0.888-9.353,3.886-11.408,8.508c-2.198,4.943-1.346,10.948,2.166,15.071c3.275,3.847,8.635,5.842,13.619,4.866
		c5.051-0.988,9.219-4.823,10.892-9.65c1.612-4.649,0.712-9.795-2.515-13.532C289.775,84.171,284.924,82.091,280.145,82.525"/>
</g>
<g>
	<path style="fill:#010101;" d="M267.214,96.834c0-9.211,9.521-16.507,18.415-14.117c8.393,2.254,13.102,12.343,9.477,20.232
		c-2.76,6.005-9.756,9.514-16.224,8.198C272.277,109.806,267.214,103.566,267.214,96.834 M267.371,96.834
		c0.018,9.214,9.648,16.474,18.507,13.879c8.279-2.425,12.728-12.555,8.906-20.292c-2.872-5.818-9.81-9.11-16.136-7.691
		C272.238,84.167,267.382,90.272,267.371,96.834"/>
</g>
<g>
	<path style="fill:#010101;" d="M290.494,96.834c-0.27-2.406-1.073-4.855-2.883-6.55c-1.834-1.719-4.459-2.665-6.965-2.261
		c-4.405,0.716-7.836,5.181-7.429,9.614c0.406,4.401,4.392,8.273,8.888,8.11C286.826,105.577,290.001,101.229,290.494,96.834"/>
</g>
<g>
	<path style="fill:#686968;" d="M82.136,99.795c0-10.134-5.674-19.937-14.393-25.074c-9.167-5.402-21.161-5.419-30.181,0.318
		c-8.311,5.286-13.698,14.858-13.698,24.731C43.288,99.771,62.712,99.795,82.136,99.795"/>
</g>
<g>
	<path style="fill:#010101;" d="M76.448,96.834c-0.409-5.318-1.913-10.664-5.408-14.806c-3.44-4.075-8.364-7.023-13.597-8.064
		c-9.93-1.977-20.303,3.392-24.944,12.288c-4.351,8.342-3.032,18.985,3.24,26.004c3.516,3.934,8.502,6.716,13.701,7.616
		c5.417,0.938,11.087-0.311,15.742-3.196C72.173,112.34,75.829,104.88,76.448,96.834"/>
</g>
<g>
	<path style="fill:#FFFFFF;" d="M67.632,96.834c-0.451-4.953-2.803-9.772-7.171-12.381c-4.677-2.793-10.611-2.623-15.198,0.265
		c-4.712,2.968-7.501,8.791-6.481,14.339c0.867,4.719,4.008,8.86,8.336,10.94c4.534,2.18,9.846,1.635,13.987-1.161
		C65.142,106.11,67.201,101.586,67.632,96.834"/>
</g>
<g>
	<path style="fill:#848484;" d="M51.378,111.291c-4.903-0.89-9.363-3.836-11.441-8.459c-2.217-4.934-1.481-10.877,1.928-15.085
		c3.134-3.868,8.235-5.964,13.183-5.312c4.726,0.624,8.808,3.768,10.95,7.979c1.26,2.479,2.077,5.347,1.604,8.135
		c-0.437,2.575-1.453,5.062-3.049,7.139C61.465,109.701,56.388,111.746,51.378,111.291 M51.407,82.525
		c-4.896,0.89-9.353,3.886-11.408,8.508c-2.199,4.942-1.347,10.949,2.166,15.071c3.276,3.845,8.634,5.842,13.618,4.866
		c5.051-0.988,9.217-4.822,10.893-9.647c1.614-4.65,0.716-9.796-2.513-13.533C61.039,84.174,56.187,82.093,51.407,82.525"/>
</g>
<g>
	<path style="fill:#010101;" d="M38.479,96.834c0-9.211,9.52-16.507,18.414-14.117c8.392,2.254,13.102,12.343,9.476,20.232
		c-2.76,6.005-9.757,9.515-16.224,8.199C43.541,109.807,38.479,103.566,38.479,96.834 M38.634,96.834
		c0.017,9.213,9.647,16.475,18.505,13.879c8.278-2.426,12.727-12.554,8.907-20.292c-2.872-5.817-9.81-9.109-16.135-7.691
		C43.5,84.166,38.646,90.272,38.634,96.834"/>
</g>
<g>
	<path style="fill:#010101;" d="M61.755,96.834c-0.268-2.407-1.074-4.855-2.884-6.55c-1.834-1.719-4.458-2.665-6.964-2.261
		c-4.406,0.716-7.835,5.181-7.426,9.614c0.405,4.402,4.389,8.273,8.887,8.11C58.087,105.577,61.266,101.23,61.755,96.834"/>
</g>
<g>
	<path style="fill:#848484;" d="M363.956,23.526c-2.31-2.31-4.619-4.618-6.929-6.929c-1.108-1.107-2.218-2.217-3.325-3.325
		c-0.987-0.986-1.625-1.633-3.102-1.519c-3.253,0.252-6.56,0.082-9.817,0.009c-1.258-0.028-2.87-0.411-3.948,0.403
		c-0.454,0.342-0.815,0.796-1.128,1.266c-0.365,0.551-0.917,0.888-1.109,1.554c-0.363,1.258,0.001,2.633,0.535,3.779
		c0.692,1.484,1.464,2.936,2.196,4.399c1.473,2.943,2.944,5.888,4.416,8.833c1.389,2.777,2.655,5.664,4.188,8.364
		c0.636,1.119,1.486,1.888,2.341,2.82c1.086,1.187,2.305,0.913,3.788,0.913c3.385,0,6.768,0.009,10.15-0.014
		c1.468-0.011,2.95,0.079,4.416,0.021c1.292-0.05,2.522-0.646,2.957-1.952c0.442-1.33-0.293-2.694-0.731-3.92
		c-0.55-1.537-1.024-3.1-1.545-4.646C366.182,30.235,365.005,26.901,363.956,23.526"/>
</g>
<g>
	<path style="fill:#848484;" d="M331.632,41.157c0-1.497,0.03-2.993,0.065-4.489c0.036-1.551-0.748-2.98-1.344-4.367
		c-1.304-3.042-2.626-6.077-3.907-9.128c-1.202-2.861-2.195-5.927-3.736-8.628c-1.181-2.072-3.658-2.725-5.889-2.778
		c-6.657-0.159-13.316,0.006-19.974,0.006c-6.602,0-13.201,0-19.803,0c-26.65,0-53.301,0-79.951,0c-26.54,0-53.08,0-79.621,0
		c-6.598,0-13.197-0.036-19.794,0.001c-1.447,0.009-2.896,0.059-4.342-0.03c-1.264-0.078-2.612-0.159-3.513,0.899
		c-0.728,0.855-1.11,2.129-1.166,3.238c-0.031,0.624-0.171,1.035-0.364,1.612c-0.237,0.709,0.254,1.585,0.467,2.247
		c0.966,2.989,1.719,6.042,2.636,9.047c0.44,1.443,0.906,2.88,1.323,4.331c0.432,1.502,0.637,3.087,1.109,4.569
		c0.166,0.521,0.521,0.92,0.667,1.473c0.157,0.596,0.268,1.207,0.545,1.764c0.574,1.151,1.703,1.983,2.872,2.457
		c2.522,1.024,5.447,0.715,8.103,0.715c26.597,0,53.195,0,79.792,0c26.59,0,53.18,0,79.769,0c10.981,0,21.963,0,32.944,0
		c5.414,0,10.826,0,16.239,0c2.778,0,5.557,0,8.333,0c1.215,0,2.435-0.088,3.646,0.036c0.569,0.058,1.699,0.393,2.106-0.19
		c0.044,0.53,1.181-0.188,1.365-0.305C331.072,43.093,331.461,42.121,331.632,41.157"/>
</g>
<g>
	<path style="fill:#848484;" d="M94.079,52.911c-1.935-6.288-3.87-12.576-5.804-18.864c-0.967-3.145-1.935-6.288-2.902-9.432
		c-0.941-3.06-2.073-6.061-2.866-9.163c-0.265-1.04-0.483-2.205-1.303-2.972c-0.96-0.897-2.348-0.739-3.556-0.712
		c-3.182,0.073-6.374,0.003-9.557,0.003c-6.593,0-13.187,0-19.779,0c-6.557,0-13.113,0-19.67,0c-1.564,0-3.128,0-4.692,0
		c-1.023,0-3.016-0.482-3.522,0.653c-1.297,2.914-2.464,5.886-3.716,8.819c-2.604,6.102-5.227,12.195-7.84,18.294
		c-1.288,3.006-2.576,6.013-3.865,9.019C4.43,49.9,3.67,51.187,3.243,52.588c-0.334,1.096,0.744,2.214,1.581,2.745
		c1.103,0.7,2.463,0.549,3.705,0.52c1.694-0.039,3.393-0.004,5.087-0.004c3.306,0,6.612,0,9.918,0c6.622,0,13.243,0,19.865,0
		c13.238,0,26.477-0.068,39.715-0.001c2.471,0.013,4.947,0.138,7.417-0.007C92.176,55.746,93.863,54.643,94.079,52.911"/>
</g>
<g>
	<path style="fill:#010101;" d="M278.5,36.781c-1.346-5.38-2.689-10.76-4.036-16.139c-0.179-0.716-0.479-1.374-1.325-1.375
		c-0.701-0.002-1.359,0.499-1.482,1.202c-0.192,1.104,0.416,2.26,0.714,3.29c0.391,1.354,0.688,2.733,1.03,4.1
		c1.35,5.396,2.699,10.792,4.047,16.189c0.172,0.683,0.438,1.352,1.255,1.367c0.664,0.012,1.303-0.446,1.495-1.082
		c0.342-1.121-0.377-2.447-0.68-3.501C279.131,39.494,278.837,38.132,278.5,36.781"/>
	<path style="fill:#010101;" d="M330.024,17.176c-0.384-1.076-1.946-1.019-2.862-0.982c-1.745,0.07-3.488,0.063-5.235,0.063
		c-4.327,0-8.654,0-12.981,0c-1.215,0-3.969,0.757-4.211-0.919c-0.207-1.423-0.502-3.624-1.627-4.652
		c-1.301-1.188-2.2,0.602-2.075,1.765c0.144,1.336,0.786,2.525,1.13,3.808c-13.251,0-26.503,0-39.754,0c-6.62,0-13.24,0-19.86,0
		c-1.121,0-2.243,0.391-2.423-1.021c-0.158-1.246-0.439-3.02-1.145-4.08c-0.604-0.914-2.033-1.083-2.48,0.088
		c-0.359,0.94,0.162,2.035,0.425,2.935c0.203,0.693,0.421,1.381,0.61,2.078c-13.28,0-26.561,0-39.842,0
		c-6.649,0-13.299-0.075-19.949-0.1c-3.326-0.014-6.651-0.014-9.977,0.015c-1.595,0.013-3.19,0.033-4.786,0.061
		c-0.797,0.015-1.594,0.03-2.392,0.049c-0.59,0.014-1.44,0.212-1.996-0.038c-1.572-0.708-1.023-3.842-1.77-5.143
		c-0.564-0.984-2.098-0.862-2.479,0.215c-0.256,0.728,0.066,1.554,0.279,2.249c0.273,0.894,0.542,1.791,0.788,2.692
		c-13.275,0-26.55,0-39.825,0c-6.63,0-13.26,0-19.89,0c-1.578,0-3.156,0-4.734,0c-1.011,0-2.054-0.275-3.052,0
		c-1.007,0.277-1.322,1.448-0.667,2.255c0.677,0.834,2.051,0.667,2.994,0.613c6.503-0.368,13.079-0.199,19.591-0.178
		c6.653,0.021,13.306,0.089,19.959,0.092c6.582,0.002,13.166,0.147,19.747-0.028c1.501-0.04,3.003-0.104,4.505-0.083
		c0.912,0.013,1.983-0.165,2.407,0.836c0.542,1.281,0.79,2.73,1.102,4.08c0.366,1.581,0.788,3.143,1.223,4.706
		c1.137,4.083,2.262,8.162,3.221,12.292c0.301,1.295,0.568,3.635,1.852,4.372c1.245,0.714,1.993-0.509,1.918-1.633
		c-0.119-1.788-0.957-3.429-1.416-5.138c-0.578-2.148-1.17-4.295-1.756-6.441c-1.178-4.32-2.357-8.642-3.535-12.961
		c13.278,0,26.556,0,39.833,0c6.627,0,13.254,0,19.883,0c3.312,0,6.627,0,9.939,0c1.564,0,3.129,0,4.693,0
		c0.757,0,1.512-0.035,2.269-0.049c0.711-0.015,1.845-0.186,2.503,0.13c0.598,0.285,0.706,1.842,0.848,2.392
		c0.312,1.22,0.617,2.442,0.939,3.659c0.665,2.509,1.366,5.007,2.051,7.511c0.689,2.533,1.381,5.066,2.071,7.6
		c0.29,1.064,0.59,2.124,0.826,3.201c0.165,0.759,0.425,1.674,1.257,1.933c2.412,0.75,1.551-2.76,1.259-3.85
		c-0.649-2.427-1.42-4.819-2.081-7.243c-1.39-5.095-2.777-10.188-4.168-15.282c13.324,0,26.647,0,39.973,0
		c6.567,0,13.141,0.256,19.705-0.032c1.088-0.047,1.983-0.26,2.404,0.972c0.498,1.456,0.676,3.027,1.055,4.518
		c0.791,3.121,1.728,6.205,2.533,9.323c0.515,1.99,1.018,3.983,1.527,5.976c0.346,1.349,0.583,2.793,1.067,4.101
		c0.332,0.896,1.224,2.126,2.335,1.452c0.852-0.517,0.565-1.971,0.386-2.755c-0.368-1.6-0.961-3.159-1.394-4.745
		c-0.563-2.079-1.074-4.171-1.623-6.254c-1.102-4.188-2.239-8.369-3.36-12.553c6.097,0,12.194,0,18.291,0
		C325.382,19.04,330.999,19.921,330.024,17.176"/>
	<path style="fill:#010101;" d="M128.946,36.781c-1.344-5.38-2.689-10.76-4.034-16.139c-0.179-0.716-0.479-1.374-1.326-1.376
		c-0.703-0.001-1.362,0.499-1.485,1.202c-0.194,1.104,0.417,2.26,0.714,3.29c0.39,1.355,0.688,2.733,1.03,4.101
		c1.349,5.396,2.698,10.792,4.048,16.189c0.171,0.683,0.437,1.352,1.253,1.367c0.664,0.013,1.303-0.445,1.497-1.082
		c0.34-1.121-0.377-2.448-0.681-3.501C129.579,39.494,129.284,38.132,128.946,36.781"/>
	<path style="fill:#010101;" d="M205.191,36.781c-1.346-5.38-2.69-10.76-4.037-16.139c-0.178-0.716-0.479-1.374-1.323-1.375
		c-0.703-0.002-1.36,0.499-1.483,1.202c-0.191,1.104,0.418,2.26,0.715,3.29c0.391,1.354,0.688,2.733,1.029,4.1
		c1.352,5.396,2.698,10.792,4.049,16.189c0.178,0.71,0.473,1.396,1.325,1.366c0.706-0.024,1.349-0.562,1.466-1.263
		c0.188-1.113-0.424-2.279-0.723-3.319C205.823,39.494,205.529,38.132,205.191,36.781"/>
</g>
<g>
	<path style="fill:#454545;" d="M366.894,98.836c0-2.032,0-4.065,0-6.099c0-0.715,0.102-1.438,0.571-2.008
		c0.642-0.773,1.561-0.713,2.474-0.71c2.107,0.005,4.216-0.001,6.323-0.02c1.64-0.016,2.099,1.419,2.294,2.788
		c0.257,1.791,0.283,3.827,0.134,5.63c-0.061,0.715-0.133,1.535-0.441,2.189c-0.386,0.819-1.311,0.984-2.122,1.086
		c-2.125,0.265-4.245,0.175-6.378,0.062c-0.772-0.041-1.66-0.073-2.246-0.655C366.912,100.517,366.894,99.612,366.894,98.836"/>
</g>
<g>
	<path style="fill:#010101;" d="M9.345,101.391c1.311,0.329,2.756,0.585,4.102,0.325c1.333-0.258,1.421-1.279,1.38-2.456
		c-0.059-1.688-0.084-3.397-0.012-5.084c0.045-1.037,0.345-2.157,0.061-3.18c-0.361-1.298-2.042-1.036-3.069-0.945
		c-0.946,0.084-2.391-0.172-2.667,1.055c-0.381,1.697-0.068,3.476-0.097,5.195C9.014,98,8.933,99.726,9.345,101.391"/>
</g>
<g>
	<path style="fill:#010101;" d="M28.194,55.849c0-13.276,0-26.554,0-39.832c0-1.267-0.877-6.5,1.921-5.505
		c1.135,0.404,0.863,1.806,0.863,2.743c0,1.659,0,3.318,0,4.978c0,6.644,0,13.285,0,19.928c0,4.237,0,8.477,0,12.715
		c0,1.039,0,2.078,0,3.117c0,0.753,0.189,1.761-0.155,2.463C30.216,57.694,28.194,57.228,28.194,55.849"/>
</g>
</svg>
