<?xml version="1.0" encoding="UTF-8" standalone="no"?>
<!-- Created with Inkscape (http://www.inkscape.org/) -->
<svg
   xmlns:dc="http://purl.org/dc/elements/1.1/"
   xmlns:cc="http://creativecommons.org/ns#"
   xmlns:rdf="http://www.w3.org/1999/02/22-rdf-syntax-ns#"
   xmlns:svg="http://www.w3.org/2000/svg"
   xmlns="http://www.w3.org/2000/svg"
   xmlns:xlink="http://www.w3.org/1999/xlink"
   xmlns:sodipodi="http://sodipodi.sourceforge.net/DTD/sodipodi-0.dtd"
   xmlns:inkscape="http://www.inkscape.org/namespaces/inkscape"
   height="124.4328"
   id="svg1"
   version="1.0"
   width="379.15445"
   x="0.0000000"
   y="0.0000000"
   sodipodi:version="0.32"
   inkscape:version="0.46"
   sodipodi:docname="bus_symbol_black_01.svg"
   inkscape:output_extension="org.inkscape.output.svg.inkscape"
   inkscape:export-filename="C:\joanna\Gfx\drawings_vector\admin\thumbs\Hans Deragon\bus_symbol_black_01.png"
   inkscape:export-xdpi="144.5585"
   inkscape:export-ydpi="144.5585">
  <sodipodi:namedview
     inkscape:window-height="667"
     inkscape:window-width="640"
     inkscape:pageshadow="2"
     inkscape:pageopacity="0.0"
     guidetolerance="10.0"
     gridtolerance="10.0"
     objecttolerance="10.0"
     borderopacity="1.0"
     bordercolor="#666666"
     pagecolor="#ffffff"
     id="base"
     showgrid="false"
     inkscape:zoom="0.43901235"
     inkscape:cx="36.065808"
     inkscape:cy="526.18109"
     inkscape:window-x="22"
     inkscape:window-y="29"
     inkscape:current-layer="svg1" />
  <metadata
     id="metadata3">
    <rdf:RDF>
      <cc:Work
         rdf:about="">
        <dc:title>Bus Symbol (black)</dc:title>
        <dc:description>Symbolic bus extracted from bus_lane.svg</dc:description>
        <dc:subject>
          <rdf:Bag>
            <rdf:li />
            <rdf:li>transport</rdf:li>
            <rdf:li>roadsign</rdf:li>
            <rdf:li>transportation</rdf:li>
          </rdf:Bag>
        </dc:subject>
        <dc:publisher>
          <cc:Agent
             rdf:about="http://www.openclipart.org">
            <dc:title>Open Clip Art Library</dc:title>
          </cc:Agent>
        </dc:publisher>
        <dc:creator>
          <cc:Agent>
            <dc:title>Hans Deragon</dc:title>
          </cc:Agent>
        </dc:creator>
        <dc:rights>
          <cc:Agent>
            <dc:title></dc:title>
          </cc:Agent>
        </dc:rights>
        <dc:date />
        <dc:format>image/svg+xml</dc:format>
        <dc:type
           rdf:resource="http://purl.org/dc/dcmitype/StillImage" />
        <cc:license
           rdf:resource="http://creativecommons.org/licenses/publicdomain/" />
        <dc:language>en</dc:language>
      </cc:Work>
      <cc:License
         rdf:about="http://creativecommons.org/licenses/publicdomain/">
        <cc:permits
           rdf:resource="http://creativecommons.org/ns#Reproduction" />
        <cc:permits
           rdf:resource="http://creativecommons.org/ns#Distribution" />
        <cc:permits
           rdf:resource="http://creativecommons.org/ns#DerivativeWorks" />
      </cc:License>
    </rdf:RDF>
  </metadata>
  <defs
     id="defs3">
    <inkscape:perspective
       sodipodi:type="inkscape:persp3d"
       inkscape:vp_x="0 : 526.18109 : 1"
       inkscape:vp_y="0 : 1000 : 0"
       inkscape:vp_z="744.09448 : 526.18109 : 1"
       inkscape:persp3d-origin="372.04724 : 350.78739 : 1"
       id="perspective19" />
    <linearGradient
       id="linearGradient909">
      <stop
         id="stop910"
         offset="0.0000000"
         style="stop-color:#000000;stop-opacity:1.0000000;" />
      <stop
         id="stop911"
         offset="1.0000000"
         style="stop-color:#ffffff;stop-opacity:1.0000000;" />
    </linearGradient>
    <linearGradient
       id="linearGradient912"
       xlink:href="#linearGradient909" />
  </defs>
  <g
     id="g5994"
     transform="translate(698.95223,-658.24188)">
    <g
       id="g4744"
       transform="matrix(1.22,0,0,1.22,-138.8875,13.9303)">
      <path
         d="M -218.75,614.23718 C -218.75,605.95291 -225.46573,599.23718 -233.75,599.23718 C -242.03427,599.23718 -248.75,605.95291 -248.75,614.23718 C -248.75,622.52145 -242.03427,629.23718 -233.75,629.23718 C -225.46573,629.23718 -218.75,622.52145 -218.75,614.23718 z"
         id="path3500"
         style="fill:#000000;fill-opacity:0.75;fill-rule:evenodd;stroke:#000000;stroke-width:1pt;stroke-linecap:butt;stroke-linejoin:miter;stroke-opacity:1" />
      <path
         d="M -222.5,621.11218 C -222.5,616.62487 -226.13769,612.98718 -230.625,612.98718 C -235.11231,612.98718 -238.75,616.62487 -238.75,621.11218 C -238.75,625.59949 -235.11231,629.23718 -230.625,629.23718 C -226.13769,629.23718 -222.5,625.59949 -222.5,621.11218 z"
         id="path4122"
         style="fill:#fffdfd;fill-opacity:1;fill-rule:evenodd;stroke:#000000;stroke-width:1pt;stroke-linecap:butt;stroke-linejoin:miter;stroke-opacity:1"
         transform="translate(-3.125,-6.875)" />
    </g>
    <path
       d="M -670.39054,678.0449 L -657.01579,678.0449 C -654.04576,678.0449 -651.65472,680.43594 -651.65472,683.40597 L -651.65472,750.92195 C -651.65473,753.89198 -654.04576,756.28301 -657.01579,756.28302 L -670.39054,756.28302 C -673.36058,756.28302 -675.75161,753.89197 -675.75161,750.92195 L -675.75161,683.40597 C -675.75161,680.43594 -673.36058,678.0449 -670.39054,678.0449 z M -394.35125,677.82152 L -349.25044,677.82152 C -340.16919,677.82152 -333.75999,683.42597 -333.75999,689.13159 L -333.75999,705.18531 C -333.75999,708.15535 -336.151,710.54638 -339.12106,710.54638 L -394.35125,710.54638 C -397.32129,710.54638 -399.71233,708.15535 -399.71233,705.18531 L -399.71233,683.18259 C -399.71233,680.21256 -397.32129,677.82152 -394.35125,677.82152 z M -472.56145,677.82152 L -417.35918,677.82152 C -414.38915,677.82152 -411.99812,680.21256 -411.99812,683.18259 L -411.99812,705.18531 C -411.99812,708.15535 -414.38915,710.54638 -417.35918,710.54638 L -472.56145,710.54638 C -475.53148,710.54638 -477.92252,708.15535 -477.92252,705.18531 L -477.92252,683.18259 C -477.92252,680.21256 -475.53148,677.82152 -472.56145,677.82152 z M -551.24634,677.82152 L -496.01614,677.82152 C -493.0461,677.82152 -490.65507,680.21256 -490.65507,683.18259 L -490.65507,705.18531 C -490.65507,708.15535 -493.0461,710.54638 -496.01614,710.54638 L -551.24634,710.54638 C -554.21637,710.54638 -556.6074,708.15535 -556.6074,705.18531 L -556.6074,683.18259 C -556.6074,680.21256 -554.21637,677.82152 -551.24634,677.82152 z M -630.15459,677.82152 L -574.9244,677.82152 C -571.95436,677.82152 -569.56331,680.21256 -569.56333,683.18259 L -569.56333,705.18531 C -569.56333,708.15535 -571.95435,710.54638 -574.9244,710.54638 L -630.15459,710.54638 C -633.12462,710.54638 -635.51566,708.15535 -635.51566,705.18531 L -635.51566,683.18259 C -635.51566,680.21256 -633.12462,677.82152 -630.15459,677.82152 z M -340.09834,658.80647 L -412.80786,658.91816 L -459.13086,659.02985 L -505.48178,659.11362 L -551.8327,659.2253 L -598.1557,659.30907 L -685.66401,658.974 C -688.64087,659.19244 -691.0301,661.11184 -691.16468,663.88832 L -693.39662,714.17628 L -698.39378,718.02954 L -698.39378,742.62904 L -698.31001,761.50263 C -698.40191,766.51234 -694.62168,769.18713 -690.85477,769.29293 L -652.79953,769.29293 L -635.77508,769.29293 C -636.59453,767.00638 -637.14327,765.88671 -637.14327,763.31942 C -637.37065,750.31459 -626.86084,739.77686 -613.40125,739.77686 C -599.48689,739.77686 -590.31344,751.4515 -590.42714,763.31942 C -590.42714,765.88382 -590.94972,767.00855 -591.7674,769.29293 L -510.22856,769.29293 L -446.10161,769.45372 C -446.92106,767.16717 -447.46981,766.04749 -447.46981,763.48021 C -447.63059,750.37311 -437.08476,739.8273 -423.33454,739.98808 C -409.42353,739.98808 -400.51348,751.33782 -400.51348,763.31942 C -400.43309,766.72845 -400.75035,767.97648 -400.75035,769.67404 L -320.80407,753.78629 L -320.35731,676.09034 C -320.23036,667.26597 -331.2437,658.53555 -340.09834,658.80647 z"
       id="path4747"
       style="font-size:12px;fill:#000000;fill-opacity:1;fill-rule:evenodd;stroke:#ffffff;stroke-width:1.11689246" />
    <g
       id="g4748"
       transform="matrix(1.22,0,0,1.22,-328.575,14.24282)">
      <path
         d="M -218.75,614.23718 C -218.75,605.95291 -225.46573,599.23718 -233.75,599.23718 C -242.03427,599.23718 -248.75,605.95291 -248.75,614.23718 C -248.75,622.52145 -242.03427,629.23718 -233.75,629.23718 C -225.46573,629.23718 -218.75,622.52145 -218.75,614.23718 z"
         id="path4749"
         style="fill:#000000;fill-opacity:0.75;fill-rule:evenodd;stroke:#000000;stroke-width:1pt;stroke-linecap:butt;stroke-linejoin:miter;stroke-opacity:1" />
      <path
         d="M -222.5,621.11218 C -222.5,616.62487 -226.13769,612.98718 -230.625,612.98718 C -235.11231,612.98718 -238.75,616.62487 -238.75,621.11218 C -238.75,625.59949 -235.11231,629.23718 -230.625,629.23718 C -226.13769,629.23718 -222.5,625.59949 -222.5,621.11218 z"
         id="path4750"
         style="fill:#fffdfd;fill-opacity:1;fill-rule:evenodd;stroke:#000000;stroke-width:1pt;stroke-linecap:butt;stroke-linejoin:miter;stroke-opacity:1"
         transform="translate(-3.125,-6.875)" />
    </g>
  </g>
</svg>
