<?xml version="1.0" encoding="UTF-8" standalone="no"?>
<!-- Created with Inkscape (http://www.inkscape.org/) -->
<svg
   xmlns:dc="http://purl.org/dc/elements/1.1/"
   xmlns:cc="http://creativecommons.org/ns#"
   xmlns:rdf="http://www.w3.org/1999/02/22-rdf-syntax-ns#"
   xmlns:svg="http://www.w3.org/2000/svg"
   xmlns="http://www.w3.org/2000/svg"
   xmlns:sodipodi="http://sodipodi.sourceforge.net/DTD/sodipodi-0.dtd"
   xmlns:inkscape="http://www.inkscape.org/namespaces/inkscape"
   id="svg2"
   sodipodi:version="0.32"
   inkscape:version="0.46"
   width="681.15009"
   height="1300.8778"
   version="1.0"
   sodipodi:docname="vehicles.svg"
   inkscape:output_extension="org.inkscape.output.svg.inkscape">
  <metadata
     id="metadata7">
    <rdf:RDF>
      <cc:Work
         rdf:about="">
        <dc:format>image/svg+xml</dc:format>
        <dc:type
           rdf:resource="http://purl.org/dc/dcmitype/StillImage" />
      </cc:Work>
    </rdf:RDF>
  </metadata>
  <defs
     id="defs5">
    <inkscape:perspective
       sodipodi:type="inkscape:persp3d"
       inkscape:vp_x="0 : 526.18109 : 1"
       inkscape:vp_y="0 : 1000 : 0"
       inkscape:vp_z="744.09448 : 526.18109 : 1"
       inkscape:persp3d-origin="372.04724 : 350.78739 : 1"
       id="perspective9" />
  </defs>
  <sodipodi:namedview
     inkscape:window-height="974"
     inkscape:window-width="1280"
     inkscape:pageshadow="2"
     inkscape:pageopacity="0.0"
     guidetolerance="10.0"
     gridtolerance="10.0"
     objecttolerance="10.0"
     borderopacity="1.0"
     bordercolor="#666666"
     pagecolor="#ffffff"
     id="base"
     showgrid="false"
     inkscape:zoom="0.26431025"
     inkscape:cx="355.71002"
     inkscape:cy="581.12804"
     inkscape:window-x="-8"
     inkscape:window-y="-8"
     inkscape:current-layer="svg2" />
  <path
     id="path2904"
     d="M 235.35301,125.67168 C 227.64421,122.17038 222.93491,114.16588 222.93491,104.56447 C 222.93491,94.443871 226.52621,88.436471 235.14351,84.142271 C 244.49763,79.480871 256.74233,81.806471 263.18993,89.468971 C 265.89753,92.686771 268.92373,100.99387 268.92373,105.20847 C 268.92373,108.86808 265.17863,117.82708 262.39973,120.81508 C 256.17473,127.50868 244.15103,129.66768 235.35301,125.67168 z M 452.42373,125.95568 C 441.31833,119.90528 436.58473,107.76308 440.88473,96.355971 C 447.74623,78.152871 473.49073,76.371271 482.17373,93.498671 C 487.76103,104.51977 484.54853,117.81368 474.72733,124.31318 C 471.25403,126.61178 469.32383,127.10768 462.99683,127.32728 C 457.47973,127.51878 454.60933,127.14648 452.42373,125.95568 z M 597.69843,124.80628 C 592.18063,121.60458 588.32013,116.74858 586.79493,111.09078 C 585.53993,106.43537 586.33343,97.594171 588.35333,93.728371 C 591.84823,87.039371 601.14963,81.623471 609.20583,81.586471 C 629.04013,81.495371 639.36193,106.36947 625.48413,120.81508 C 618.44303,128.14428 606.42603,129.87048 597.69843,124.80628 z M 197.17371,102.03867 C 195.00281,100.50687 194.92371,99.897371 194.92371,84.698871 C 194.92371,73.622571 195.29471,68.468771 196.17371,67.336671 C 197.10151,66.141671 208.76641,63.775671 241.42373,58.158671 L 285.42373,50.590771 L 305.42373,30.214271 C 316.42373,19.007171 326.40663,9.3262718 327.60803,8.7010718 C 329.16823,7.8891717 346.88033,7.5651717 389.60803,7.5668717 L 449.42383,7.5693717 L 477.42373,30.141471 C 492.82373,42.556171 506.43623,53.577071 507.67373,54.632371 C 509.87783,56.512071 509.92373,56.989871 509.92373,78.057871 C 509.92373,98.400771 509.81293,99.675271 507.87523,101.61297 C 506.20423,103.28397 504.78953,103.60637 500.19683,103.36297 L 494.56673,103.06447 L 493.40953,97.907971 C 491.10673,87.647471 482.09543,77.653271 471.90503,74.057871 C 462.15543,70.617971 449.88623,73.324471 441.41113,80.784571 C 436.64583,84.979071 433.67993,90.292371 431.48633,98.564471 L 430.29303,103.06447 L 353.93403,103.06447 L 277.57493,103.06447 L 276.42263,97.947971 C 272.95223,82.539171 259.19873,71.879471 243.92373,72.759571 C 229.47001,73.592271 218.37291,83.309871 214.45511,98.564471 L 213.29941,103.06447 L 206.36161,103.34537 C 201.27871,103.55117 198.82211,103.20187 197.17371,102.03867 z M 383.59123,56.233771 C 384.91163,54.916271 385.23723,22.018871 383.95373,19.620471 C 382.88403,17.621671 382.08163,17.564471 355.12723,17.564471 L 327.40103,17.564471 L 311.07323,33.914771 C 297.82903,47.177271 294.80943,50.713571 295.08453,52.639771 C 295.76733,57.419871 297.43913,57.587971 341.59123,57.317071 C 364.23343,57.178171 383.13343,56.690671 383.59123,56.233771 z M 464.34453,54.640171 C 469.49033,49.803371 468.43893,47.747671 452.70093,31.874371 L 438.47823,17.529371 L 414.95093,17.796871 L 391.42373,18.064471 L 391.15023,36.560671 C 390.90263,53.302871 391.04493,55.180171 392.65023,56.356871 C 394.04203,57.377171 401.66983,57.593171 428.09453,57.360671 L 461.76543,57.064471 L 464.34453,54.640171 z M 518.92373,102.07957 C 518.92373,100.82407 520.69013,100.56447 529.23263,100.56447 C 540.03803,100.56447 542.45733,99.779571 543.10223,96.064471 C 543.43143,94.167671 544.34133,94.050371 560.74233,93.790571 L 578.03523,93.516771 L 577.72953,98.290571 L 577.42373,103.06447 L 548.17373,103.32957 C 522.59413,103.56137 518.92373,103.40457 518.92373,102.07957 z M 640.23613,99.087171 C 639.67263,96.624671 639.44683,94.374671 639.73433,94.087171 C 640.02183,93.799671 647.83963,93.564471 657.10727,93.564471 L 673.95747,93.564471 L 671.42377,98.564471 L 668.89007,103.56447 L 655.07537,103.56447 L 641.26073,103.56447 L 640.23613,99.087171 z M 542.92373,57.032371 C 542.92373,27.786271 543.44813,23.959771 547.77333,21.644971 C 550.51183,20.179371 667.24497,20.130771 669.97917,21.594071 C 674.54037,24.035271 674.92377,26.742671 674.92377,56.514771 L 674.92377,84.564471 L 654.32067,84.564471 L 633.71763,84.564471 L 628.96693,80.293171 C 623.70993,75.566671 615.92413,72.564471 608.92373,72.564471 C 601.92333,72.564471 594.13753,75.566671 588.88053,80.293171 L 584.12983,84.564471 L 563.52683,84.564471 L 542.92373,84.564471 L 542.92373,57.032371 z"
     style="fill:#010101"
     sodipodi:nodetypes="csssssccssssccssssccsscccscccssscccsscccccscccccscccsscccccccsccccsscccccccsccccccccsscccccsccccc" />
  <path
     id="path2990"
     style="fill:#010101"
     d="M 448.29987,989.55415 C 439.66067,987.30193 434.59607,980.45151 434.59607,971.01808 C 434.59607,964.6613 436.44297,960.16617 440.43467,956.80732 C 450.06967,948.70004 465.24197,951.45795 470.47497,962.26782 C 473.74357,969.01996 473.35737,975.65292 469.34607,981.65507 C 464.39967,989.05642 457.01797,991.82692 448.29987,989.55415 z M 605.09608,988.14105 C 598.42128,983.98142 594.59068,977.98129 594.60168,971.70298 C 594.62258,959.77629 603.59228,951.34711 615.28588,952.26519 C 627.62038,953.23357 636.27578,965.36839 632.59258,976.52887 C 631.03538,981.24723 626.01208,986.94631 621.89388,988.66704 C 617.15228,990.6482 608.69418,990.38335 605.09608,988.14105 z M 421.34607,968.93615 C 419.77017,968.01991 419.59607,965.89636 419.59607,947.58919 L 419.59607,927.25969 L 426.14467,909.88921 C 429.74637,900.33545 433.34297,891.52711 434.13707,890.31514 C 434.93577,889.09613 437.03647,887.86316 438.83847,887.55563 C 443.54257,886.75286 486.64317,884.3985 487.16067,884.91604 C 487.40017,885.15549 487.59607,900.07827 487.59607,918.07776 C 487.59607,946.99741 487.78007,950.87471 489.17787,951.41109 C 490.04787,951.74494 513.67288,952.01808 541.67788,952.01808 C 570.22028,952.01808 592.59608,952.40372 592.59608,952.89564 C 592.59608,953.37829 591.93228,954.3241 591.12098,954.99743 C 590.30968,955.67076 588.64478,959.32986 587.42128,963.12877 L 585.19668,970.03587 L 533.64638,969.77697 L 482.09607,969.51808 L 480.41937,964.28361 C 476.80437,952.99824 467.45777,944.92032 456.23507,943.38208 C 448.31627,942.29668 436.28377,947.4796 431.38127,954.0877 C 430.33277,955.50099 428.43397,959.53204 427.16177,963.0456 C 424.68397,969.88862 424.06417,970.51644 421.34607,968.93615 z M 449.07197,926.46277 C 457.88527,925.60735 466.10857,924.492 467.34607,923.98421 C 469.53887,923.08443 469.59607,922.67825 469.59607,908.00813 C 469.59607,895.48369 469.34157,892.85766 468.08097,892.37391 C 465.31707,891.3133 437.42057,893.76371 436.01177,895.19086 C 433.61317,897.62054 424.42117,923.18494 425.04797,925.68254 C 425.77077,928.56243 427.02117,928.60304 449.07197,926.46277 z M 642.26278,969.35141 C 641.89608,968.98475 641.59608,967.7299 641.59608,966.56286 C 641.59608,964.38025 639.41038,959.60828 636.19368,954.76808 L 634.36608,952.01808 L 653.02878,952.01808 L 671.69148,952.01808 L 671.39378,958.26808 L 671.09608,964.51808 L 663.09608,967.20271 C 655.48278,969.75759 643.86698,970.95561 642.26278,969.35141 z" />
  <path
     id="path2976"
     style="fill:#010101"
     d="M 242.34776,238.49271 C 241.42656,237.95519 240.17556,236.00869 239.56776,234.16716 C 236.97886,226.3228 244.22006,220.15764 251.90816,223.66055 C 256.95286,225.95908 257.76496,234.84692 253.22106,238.02959 C 250.80866,239.71934 244.88266,239.97174 242.34776,238.49271 z M 220.52276,228.53083 C 220.52276,227.96673 223.35606,227.53083 227.02276,227.53083 C 230.68946,227.53083 233.52276,227.96673 233.52276,228.53083 C 233.52276,229.09493 230.68946,229.53083 227.02276,229.53083 C 223.35606,229.53083 220.52276,229.09493 220.52276,228.53083 z M 261.52276,228.53083 C 261.52276,227.97419 264.20906,227.53083 267.58176,227.53083 C 271.36646,227.53083 273.40886,227.90619 273.02276,228.53083 C 272.68286,229.08083 269.95626,229.53083 266.96376,229.53083 C 263.97116,229.53083 261.52276,229.08083 261.52276,228.53083 z M 220.52276,210.23084 C 220.52276,202.77528 220.93106,198.52258 221.72276,197.73084 C 222.59256,196.86102 229.85456,196.53084 248.11576,196.53084 C 270.16606,196.53084 273.38446,196.72816 273.91576,198.11263 C 274.24966,198.98261 274.52276,204.60761 274.52276,210.61263 L 274.52276,221.53083 L 266.48226,221.53083 C 259.71236,221.53083 257.96086,221.17528 255.39846,219.28083 C 253.23016,217.67774 250.96576,217.03083 247.52276,217.03083 C 244.07976,217.03083 241.81536,217.67774 239.64706,219.28083 C 237.08466,221.17528 235.33316,221.53083 228.56326,221.53083 L 220.52276,221.53083 L 220.52276,210.23084 z" />
  <path
     id="path2980"
     style="fill:#010101"
     d="M 107.50666,391.58005 C 101.98886,388.37836 98.128361,383.52228 96.603161,377.86454 C 95.348161,373.20906 96.141661,364.36789 98.161561,360.50208 C 101.65646,353.81313 110.95786,348.39717 119.01407,348.36017 C 138.84836,348.26908 149.17016,373.14321 135.29236,387.58882 C 128.25127,394.91804 116.23426,396.6442 107.50666,391.58005 z M 28.731961,368.85331 C 28.731961,367.59782 30.498361,367.33821 39.040861,367.33821 C 49.846261,367.33821 52.265561,366.55328 52.910361,362.83821 C 53.239661,360.94137 54.149561,360.82408 70.550561,360.56436 L 87.843461,360.2905 L 87.537761,365.06436 L 87.231961,369.83821 L 57.981961,370.10331 C 32.402361,370.33515 28.731961,370.1783 28.731961,368.85331 z M 150.04436,365.86094 C 149.48086,363.39845 149.25506,361.14845 149.54256,360.86094 C 149.83006,360.57344 157.64786,360.33821 166.91546,360.33821 L 183.76566,360.33821 L 181.23196,365.33821 L 178.69826,370.33821 L 164.88356,370.33821 L 151.06896,370.33821 L 150.04436,365.86094 z M 52.731961,323.80609 C 52.731961,294.56003 53.256361,290.73348 57.581561,288.4187 C 60.320061,286.95311 177.05316,286.90454 179.78736,288.36785 C 184.34856,290.80896 184.73196,293.5164 184.73196,323.28855 L 184.73196,351.33821 L 164.12886,351.33821 L 143.52586,351.33821 L 138.77516,347.06693 C 133.51816,342.34045 125.73237,339.33821 118.73197,339.33821 C 111.73156,339.33821 103.94576,342.34045 98.688761,347.06693 L 93.938061,351.33821 L 73.335061,351.33821 L 52.731961,351.33821 L 52.731961,323.80609 z" />
  <path
     id="path2962"
     style="fill:#010101"
     d="M 388.34583,265.21989 C 381.01703,263.31968 374.16453,257.52605 371.39653,250.88959 C 369.26273,245.77374 369.43113,235.60314 371.73223,230.60747 C 375.83463,221.70142 383.99063,216.73136 394.37763,216.80806 C 400.73973,216.85504 408.66643,219.98094 411.97933,223.74938 C 414.91283,227.08618 417.94513,234.14747 418.49653,238.92586 C 419.54253,247.98963 412.53203,260.25153 404.34923,263.67048 C 400.17983,265.41256 392.10443,266.1944 388.34583,265.21989 z M 617.01863,264.25205 C 611.10003,262.15275 604.79223,256.62165 602.28053,251.32859 C 601.07193,248.78156 600.73963,245.78284 600.99763,239.74944 C 601.31443,232.34123 601.65493,231.17809 604.77573,226.84299 C 615.23593,212.31284 638.52383,213.67151 646.42983,229.27319 C 650.10143,236.51877 650.51133,242.34833 647.84643,249.41901 C 642.90263,262.53619 629.86593,268.80892 617.01863,264.25205 z M 343.84583,239.41349 C 340.28513,238.14092 339.84583,235.96581 339.84583,219.60747 C 339.84583,208.28732 340.21793,202.9833 341.09583,201.78837 C 342.07333,200.45786 352.57253,198.35707 389.26473,192.15016 L 436.18353,184.2133 L 458.81453,161.66038 L 481.44543,139.10746 L 546.64273,139.10746 L 611.84003,139.10746 L 641.59293,162.69397 C 657.95703,175.66656 672.35833,187.39165 673.59583,188.74974 C 675.78783,191.15528 675.84583,191.79309 675.84583,213.4721 C 675.84583,240.24427 676.07873,239.60747 666.28833,239.60747 L 659.56953,239.60747 L 657.89233,233.60747 C 655.51593,225.10649 653.65663,222.02306 647.63743,216.60081 C 639.93993,209.66677 635.12503,207.80955 624.84583,207.80955 C 614.67413,207.80955 609.26983,209.84018 602.22543,216.30894 C 597.32473,220.80911 591.85973,230.69303 591.83133,235.10747 C 591.79733,240.38006 595.99913,240.13768 509.38523,239.86343 L 428.55003,239.60747 L 426.88253,233.60747 C 424.52293,225.11706 422.66193,222.02778 416.63743,216.60081 C 409.10013,209.81106 404.09113,207.83656 394.34583,207.81359 C 384.45483,207.79026 379.31223,209.61172 372.26083,215.63593 C 366.62523,220.45058 360.84583,230.2886 360.84583,235.06719 C 360.84583,236.51935 360.30583,238.24747 359.64583,238.90747 C 358.44853,240.10477 346.82193,240.47713 343.84583,239.41349 z M 539.84583,190.13035 C 541.06843,189.35893 541.40363,185.85684 541.65843,171.1968 C 541.86233,159.46261 541.58933,152.4967 540.87323,151.1586 C 539.80513,149.16283 538.99293,149.10746 510.78813,149.10746 L 481.80073,149.10746 L 464.32333,165.84181 C 450.10613,179.45447 446.84583,183.0815 446.84583,185.28511 C 446.84583,191.08619 447.03393,191.10896 494.81833,191.09215 C 520.44393,191.08313 538.96273,190.68757 539.84583,190.13035 z M 627.26643,188.18315 C 628.94163,186.60863 629.84583,184.69323 629.84583,182.71886 C 629.84583,180.13148 627.57013,177.40314 614.56013,164.39317 L 599.27443,149.10746 L 575.64193,149.10746 C 562.64403,149.10746 551.29763,149.38061 550.42763,149.71445 C 549.06123,150.23877 548.84583,152.93542 548.84583,169.51445 C 548.84583,183.40703 549.18673,189.04839 550.08033,189.94196 C 551.02543,190.88704 559.91583,191.10977 588.00093,190.89196 L 624.68693,190.60746 L 627.26643,188.18315 z" />
  <path
     id="path2958"
     style="fill:#010101"
     d="M 29.109921,128.65527 C 24.248821,127.36273 16.512721,120.47865 14.200221,115.38764 C 10.498321,107.23804 12.556421,94.524722 18.633821,87.999942 C 27.287921,78.708842 44.752921,78.431082 53.672221,87.442702 C 63.318321,97.188502 63.444421,112.77886 53.954021,122.26923 C 47.320921,128.90235 38.533821,131.16104 29.109921,128.65527 z M 44.224521,121.21008 C 52.757121,116.95812 56.430921,108.94709 53.843721,100.23492 C 50.625121,89.396692 39.804021,84.113632 29.576221,88.387072 C 24.825921,90.371872 22.554221,92.476362 20.215321,97.059092 C 15.467621,106.36131 19.670821,117.25335 29.821721,121.95307 C 35.233921,124.45882 37.990521,124.31661 44.224521,121.21008 z M 134.68853,128.42203 C 126.12423,125.74258 119.39401,117.63669 117.84521,108.13578 C 116.26761,98.458472 123.57571,85.826852 132.78763,82.308822 C 139.79543,79.632512 150.05603,80.580412 155.50073,84.407112 C 157.84653,86.055832 161.11483,89.324112 162.76353,91.669952 C 166.58023,97.100402 167.53773,107.37635 164.87643,114.34489 C 160.37103,126.14216 147.13283,132.31535 134.68853,128.42203 z M 148.82173,121.95307 C 162.35293,115.68835 164.35713,99.079638 152.65883,90.156862 C 149.47653,87.729622 148.07503,87.348932 142.32173,87.348932 C 136.56843,87.348932 135.16693,87.729622 131.98463,90.156862 C 122.22581,97.600322 121.78851,112.76254 131.14663,119.2146 C 138.42463,124.23248 142.52593,124.86791 148.82173,121.95307 z M 83.721517,111.8285 C 72.486621,110.64354 68.253321,107.60664 65.770921,98.950828 C 63.487421,90.988592 59.975421,85.439652 54.641721,81.367092 C 49.950621,77.785212 42.138921,74.848932 37.300721,74.848932 C 34.044721,74.848932 32.321721,71.612962 32.321721,65.498042 C 32.321721,60.051822 36.077521,56.190322 45.549721,51.897852 C 53.132621,48.461582 54.857921,48.197862 55.683321,50.348932 C 55.999921,51.173932 56.646421,51.848932 57.120021,51.848932 C 57.593621,51.848932 64.884421,46.673932 73.321721,40.348932 C 93.973816,24.867182 95.588816,24.876372 107.36441,40.542812 C 111.23991,45.698782 114.64161,50.518942 114.92381,51.254272 C 115.40571,52.510182 103.57712,61.907532 101.64252,61.805752 C 101.19112,61.781992 97.570116,57.281992 93.596016,51.805752 C 89.115913,45.632362 85.696117,41.851292 84.596017,41.855152 C 82.536817,41.862372 59.459521,59.326232 58.620721,61.512032 C 57.972321,63.201762 63.438621,69.294982 67.522021,71.434252 C 71.365321,73.447712 73.851921,73.189622 75.569721,70.598932 C 76.973021,68.482722 77.857321,68.329452 90.441713,68.021292 L 103.82171,67.693652 L 111.04011,62.271292 C 115.01021,59.288992 118.63151,56.848932 119.08741,56.848932 C 119.54321,56.848932 121.47001,59.302312 123.36901,62.300882 L 126.82173,67.752832 L 138.94933,67.800882 C 151.84673,67.851982 154.15143,68.659462 152.87533,72.680012 C 152.34823,74.340692 151.05823,74.667642 143.54273,75.045272 C 133.04613,75.572692 127.22653,77.883852 121.47691,83.808452 C 115.10441,90.374892 112.83381,95.963372 112.82731,105.09764 L 112.82171,112.84635 L 101.82172,112.71186 C 95.771716,112.63789 87.626617,112.24038 83.721517,111.8285 z M 75.696021,28.381922 C 74.687721,25.754342 75.864221,24.508242 80.381621,23.419272 C 84.604617,22.401272 84.837317,22.158322 85.140917,18.450722 C 85.518617,13.838292 84.171317,12.635002 79.571721,13.476752 C 75.925921,14.143942 75.562221,13.341422 78.093921,10.215972 C 80.581921,7.1444817 83.611417,5.8489317 88.305617,5.8489317 C 96.633916,5.8489317 101.71052,11.117722 101.12652,19.155152 L 100.82172,23.348932 L 94.302016,23.348932 C 88.652617,23.348932 87.105717,23.782792 82.714417,26.598932 C 76.960221,30.289142 76.475121,30.412362 75.696021,28.381922 z" />
  <path
     id="path3206"
     style="fill:#010101"
     d="M 27.828958,258.16042 C 22.967958,256.86788 15.231858,249.9838 12.919258,244.89279 C 9.217358,236.74319 11.275458,224.02987 17.352858,217.50509 C 26.006958,208.21399 43.471958,207.93623 52.391358,216.94785 C 62.037358,226.69365 62.163458,242.28401 52.673158,251.77438 C 46.039958,258.4075 37.252858,260.66619 27.828958,258.16042 z M 133.40767,257.92718 C 124.84327,255.24773 118.11307,247.14184 116.56427,237.64093 C 114.98667,227.96362 122.29487,215.332 131.50667,211.81397 C 138.51447,209.13766 148.77507,210.08556 154.21977,213.91226 C 156.56567,215.56098 159.83386,218.82926 161.48266,221.1751 C 165.29926,226.60555 166.25676,236.8815 163.59546,243.85004 C 159.09006,255.64731 145.85187,261.8205 133.40767,257.92718 z M 82.440568,241.33365 C 71.205658,240.14869 66.972458,237.11179 64.490058,228.45598 C 62.206558,220.49374 58.694458,214.9448 53.360758,210.87224 C 48.669758,207.29036 40.858058,204.35408 36.019858,204.35408 C 32.763858,204.35408 31.040758,201.11811 31.040758,195.00319 C 31.040758,189.55697 34.796658,185.69547 44.268858,181.403 C 51.851658,177.96673 53.576958,177.70301 54.402458,179.85408 C 54.719058,180.67908 55.365558,181.35408 55.839158,181.35408 C 56.312658,181.35408 63.603458,176.17908 72.040758,169.85408 C 92.692973,154.37233 94.307873,154.38152 106.08347,170.04796 C 109.95897,175.20393 113.36067,180.02409 113.64287,180.75943 C 114.12477,182.01533 102.29627,191.41268 100.36157,191.3109 C 99.910173,191.28714 96.289273,186.78714 92.315073,181.3109 C 87.835068,175.13751 84.415168,171.35644 83.315068,171.3603 C 81.255968,171.36752 58.178558,188.83138 57.339858,191.01718 C 56.691458,192.70691 62.157758,198.80013 66.241158,200.9394 C 70.084458,202.95286 72.570958,202.69477 74.288858,200.10408 C 75.692058,197.98787 76.576458,197.8346 89.160773,197.52644 L 102.54077,197.1988 L 109.75917,191.77644 C 113.72927,188.79414 117.35057,186.35408 117.80647,186.35408 C 118.26237,186.35408 120.18907,188.80746 122.08807,191.80603 L 125.54077,197.25798 L 137.66837,197.30603 C 150.56577,197.35713 152.87047,198.16461 151.59437,202.18516 C 151.06737,203.84584 149.77727,204.17279 142.26177,204.55042 C 131.76517,205.07784 125.94567,207.389 120.19597,213.3136 C 113.82347,219.88004 111.55297,225.46852 111.54637,234.60279 L 111.54077,242.3515 L 100.54077,242.21701 C 94.490773,242.14304 86.345768,241.74553 82.440568,241.33365 z M 74.415058,157.88707 C 73.406758,155.25949 74.583358,154.01339 79.100668,152.92442 C 83.323668,151.90642 83.556368,151.66347 83.859968,147.95587 C 84.237668,143.34344 82.890468,142.14015 78.290758,142.9819 C 74.645058,143.64909 74.281358,142.84657 76.813058,139.72112 C 79.301068,136.64963 82.330468,135.35408 87.024768,135.35408 C 95.352973,135.35408 100.42957,140.62287 99.845573,148.6603 L 99.540773,152.85408 L 93.021073,152.85408 C 87.371768,152.85408 85.824868,153.28794 81.433568,156.10408 C 75.679258,159.79429 75.194258,159.91751 74.415058,157.88707 z" />
  <path
     id="path3579"
     style="fill:#010101"
     d="M 92.988473,1291.7995 C 87.918774,1290.2185 82.243374,1285.2196 80.253774,1280.5827 C 78.460374,1276.4032 78.479974,1265.9514 80.287674,1262.5009 C 81.965874,1259.2975 87.364974,1254.0645 90.872973,1252.2412 C 94.367873,1250.4247 104.70827,1250.6025 108.37297,1252.5421 C 112.33637,1254.6398 117.48797,1260.1048 118.81167,1263.6157 C 120.30437,1267.5752 120.13147,1276.7624 118.49217,1280.5827 C 116.50487,1285.2142 111.11197,1289.8623 105.58807,1291.7047 C 99.931673,1293.5912 98.762173,1293.6 92.988473,1291.7995 z M 268.87293,1291.368 C 254.00223,1286.1935 249.99863,1267.6229 261.38863,1256.6525 C 268.84033,1249.4752 280.25513,1248.6408 288.14363,1254.6966 C 294.74223,1259.7621 296.26323,1262.5158 296.69633,1270.1806 C 296.98233,1275.2432 296.63863,1277.8719 295.36023,1280.3986 C 290.11243,1290.7707 279.63103,1295.1115 268.87293,1291.368 z M 440.74584,1290.7973 C 427.68682,1283.9952 424.87602,1264.2108 435.53364,1254.1096 C 441.9621,1248.0167 452.92331,1245.6235 460.2946,1248.7034 C 478.88979,1256.473 479.66195,1283.0549 461.54224,1291.6532 C 456.2352,1294.1716 446.45077,1293.7689 440.74584,1290.7973 z M 27.861274,1268.2787 C 27.130874,1266.914 26.861374,1259.5452 27.065074,1246.5082 L 27.372974,1226.8006 L 35.622974,1203.9307 C 40.160474,1191.3523 43.872974,1179.7806 43.872974,1178.2159 C 43.872974,1176.3944 43.153474,1174.9859 41.872974,1174.3006 C 40.331474,1173.4756 39.872974,1172.2068 39.872974,1168.7654 L 39.872974,1164.3006 L 188.42267,1164.3006 C 353.22002,1164.3006 341.25532,1163.7849 344.13392,1171.0122 C 344.96382,1173.0958 348.39462,1184.5437 351.75782,1196.4519 L 357.87292,1218.1032 L 357.87292,1240.2976 C 357.87292,1265.4481 357.38122,1267.4961 350.88972,1269.3814 C 348.83722,1269.9776 338.83762,1270.2775 326.87292,1270.1017 L 306.37293,1269.8006 L 306.02103,1267.304 C 305.82753,1265.9308 304.41643,1262.0444 302.88523,1258.6675 C 298.43843,1248.8601 286.91383,1241.3006 276.40933,1241.3006 C 262.36273,1241.3006 248.97607,1252.5731 246.34077,1266.6204 L 245.64737,1270.3166 L 187.53777,1270.0586 L 129.42807,1269.8006 L 128.71867,1265.6443 C 127.22127,1256.8715 120.99837,1249.0228 111.66807,1244.1391 C 105.58557,1240.9554 93.195473,1240.9366 87.150774,1244.1019 C 78.018374,1248.8841 71.497174,1257.0294 70.061474,1265.4474 L 69.318974,1269.8006 L 49.142174,1270.0712 C 29.642874,1270.3326 28.928274,1270.2724 27.861274,1268.2787 z M 84.262274,1219.7685 C 86.627974,1217.4027 87.035974,1213.1502 86.691674,1194.4453 C 86.401274,1178.6715 86.200674,1177.0096 84.431874,1175.718 C 82.957774,1174.6417 78.867074,1174.3043 67.431874,1174.3159 C 59.149474,1174.3243 51.777774,1174.7086 51.050374,1175.1698 C 49.558174,1176.1159 35.872974,1212.3528 35.872974,1215.3581 C 35.872974,1216.4265 36.772974,1218.2006 37.872974,1219.3006 C 39.748574,1221.1762 41.206274,1221.3006 61.301574,1221.3006 C 79.215674,1221.3006 82.981374,1221.0493 84.262274,1219.7685 z M 136.04427,1219.6456 C 137.08107,1218.7073 137.86217,1216.6503 137.84817,1214.8956 C 137.81277,1210.4896 127.34927,1176.2172 125.72527,1175.1881 C 124.98147,1174.7168 118.04647,1174.3243 110.31407,1174.3159 C 99.731273,1174.3044 95.775273,1174.6515 94.314073,1175.72 C 92.504773,1177.043 92.372973,1178.4955 92.372973,1197.115 C 92.372973,1215.3552 92.538473,1217.2735 94.277973,1219.1956 C 96.087373,1221.195 97.136773,1221.3006 115.19927,1221.3006 C 131.49077,1221.3006 134.47757,1221.0635 136.04427,1219.6456 z M 187.04427,1219.6456 C 188.05007,1218.7354 188.87297,1217.1256 188.87297,1216.0683 C 188.87297,1212.4998 178.68347,1177.8158 177.11647,1176.0506 C 175.74257,1174.5029 173.42277,1174.3006 157.04677,1174.3006 C 136.52007,1174.3006 134.87297,1174.7675 134.87297,1180.5861 C 134.87297,1184.7892 144.70537,1217.4382 146.60727,1219.5506 C 148.00007,1221.0975 150.33157,1221.3006 166.69927,1221.3006 C 182.52547,1221.3006 185.48117,1221.0602 187.04427,1219.6456 z M 237.87297,1219.3006 C 238.97297,1218.2006 239.87297,1216.9262 239.87297,1216.4686 C 239.87297,1216.0109 237.39257,1206.8984 234.36107,1196.2186 C 230.99257,1184.3517 228.19607,1176.3145 227.16987,1175.5506 C 225.97037,1174.6577 220.28097,1174.3006 207.25327,1174.3006 C 187.08737,1174.3006 185.87297,1174.6518 185.87297,1180.4837 C 185.87297,1185.3886 195.03397,1217.0963 197.08807,1219.3011 C 198.82077,1221.1609 200.24027,1221.3006 217.41197,1221.3006 C 234.53967,1221.3006 236.01747,1221.1562 237.87297,1219.3006 z M 288.30153,1219.7292 C 289.16583,1218.8649 289.87293,1216.8576 289.87293,1215.2686 C 289.87293,1210.3434 280.03593,1176.9173 278.18423,1175.5506 C 276.97093,1174.6551 271.16363,1174.3006 257.70483,1174.3006 L 238.91907,1174.3006 L 237.28597,1176.7931 C 235.72747,1179.1716 235.89787,1180.1655 241.01287,1198.5404 C 244.02517,1209.3613 247.13947,1218.563 248.12297,1219.5479 C 249.66417,1221.0914 252.07213,1221.3006 268.30153,1221.3006 C 283.72143,1221.3006 286.98663,1221.044 288.30153,1219.7292 z M 339.04422,1219.6456 C 341.73122,1217.2139 341.35892,1214.0432 336.27582,1196.0653 C 331.59732,1179.5183 330.42792,1176.3711 328.47322,1175.0659 C 327.86802,1174.6618 319.08333,1174.3243 308.95163,1174.3159 C 293.19953,1174.3028 290.26543,1174.5404 288.70163,1175.9556 C 287.69583,1176.8658 286.87913,1178.5533 286.88663,1179.7056 C 286.91533,1184.0955 297.75483,1218.741 299.49843,1220.016 C 300.77483,1220.9494 306.17133,1221.3006 319.23533,1221.3006 C 334.56272,1221.3006 337.48522,1221.0564 339.04422,1219.6456 z M 361.87292,1267.8157 C 361.87292,1266.5602 363.63932,1266.3006 372.18182,1266.3006 C 382.98722,1266.3006 385.40652,1265.5157 386.05142,1261.8006 C 386.38062,1259.9038 387.29052,1259.7865 403.69152,1259.5267 L 420.98442,1259.2529 L 420.67872,1264.0267 L 420.37292,1268.8006 L 391.12292,1269.0657 C 365.54332,1269.2975 361.87292,1269.1407 361.87292,1267.8157 z M 483.19137,1264.8497 C 482.62455,1262.3727 482.39602,1260.1108 482.68352,1259.8233 C 483.54007,1258.9668 515.71205,1259.2313 516.24851,1260.0993 C 516.52,1260.5386 515.74543,1262.6761 514.52724,1264.8493 L 512.31235,1268.8006 L 498.26715,1269.077 L 484.22195,1269.3534 L 483.19137,1264.8497 z M 385.87292,1222.9498 C 385.87292,1205.5115 386.27462,1194.4467 386.98132,1192.4194 C 389.15822,1186.1749 387.81402,1186.3006 452.389,1186.3006 C 490.67865,1186.3006 511.67155,1186.6576 512.92831,1187.3302 C 517.48956,1189.7714 517.87292,1192.4788 517.87292,1222.2509 L 517.87292,1250.3006 L 497.06909,1250.3006 L 476.26525,1250.3006 L 472.93735,1246.8671 C 462.43675,1236.0332 441.30909,1236.0332 430.80852,1246.8671 L 427.48062,1250.3006 L 406.67672,1250.3006 L 385.87292,1250.3006 L 385.87292,1222.9498 z" />
  <path
     id="path3535"
     style="fill:#010101"
     d="M 331.20415,993.79157 C 324.77115,991.74088 318.20705,985.03978 316.67625,978.96068 C 312.51215,962.42328 322.29135,948.98048 338.54725,948.89618 C 343.82325,948.86888 345.89465,949.36238 349.54725,951.51728 C 355.50655,955.03308 358.15905,958.01078 360.01345,963.26668 C 366.63735,982.04088 349.91685,999.75707 331.20415,993.79157 z M 47.172106,992.89338 C 42.878706,991.36308 37.139806,986.31918 34.962006,982.16218 C 33.298506,978.98678 33.090706,968.70388 34.608606,964.67758 C 36.071706,960.79708 41.365306,955.41628 45.436106,953.67178 C 49.347306,951.99578 57.841606,951.76198 61.686206,953.22458 C 65.639806,954.72868 71.667306,960.40528 73.196306,964.06478 C 74.931006,968.21648 74.933006,977.50538 73.200206,981.64458 C 71.369406,986.01768 64.523606,991.99758 59.868106,993.29037 C 54.884906,994.67407 51.906606,994.58097 47.172106,992.89338 z M 194.4182,992.79778 C 182.1823,989.03028 176.6769,972.32058 184.017,961.22888 C 187.1214,956.53788 190.278,954.39878 196.4642,952.79408 C 209.0015,949.54198 221.329,957.68548 222.341,969.88828 C 223.02666,978.15678 221.8961,982.02878 217.3589,986.95098 C 214.4558,990.10058 211.8509,991.78878 208.2396,992.86128 C 202.1734,994.66267 200.449,994.65477 194.4182,992.79778 z M 12.609306,969.47838 C 11.969606,968.28318 11.547306,960.12988 11.547306,948.97658 L 11.547306,930.45904 L 20.047306,906.30424 C 24.722306,893.01904 28.547306,881.14214 28.547306,879.91094 C 28.547306,878.67974 27.625806,876.83844 26.499506,875.81914 C 24.950106,874.41694 24.524206,872.97984 24.749506,869.91414 L 25.047306,865.86248 L 124.0473,865.60168 C 196.9832,865.40948 223.78366,865.64398 225.84446,866.49248 C 227.38286,867.12594 229.26946,868.85834 230.03686,870.34224 C 230.80416,871.82624 234.38296,883.47764 237.98966,896.23434 L 244.54726,919.42834 L 244.54726,941.44504 C 244.54726,965.72838 244.06976,968.07498 238.67356,970.31018 C 233.92096,972.27878 232.48356,971.39748 230.60346,965.36248 C 227.98166,956.94668 226.06236,953.94278 220.4542,949.47738 C 214.4136,944.66788 209.3641,942.99314 200.9229,942.99994 C 193.8839,943.00554 186.2876,946.19578 180.6748,951.50368 C 177.0926,954.89118 172.9726,962.72978 171.9451,968.11248 L 171.3247,971.36248 L 127.9046,971.36248 C 94.016803,971.36248 84.409806,971.08808 84.144006,970.11248 C 80.899506,958.20238 80.173706,956.71068 75.336906,952.01128 C 68.592806,945.45868 62.873906,943.04504 54.047306,943.02604 C 45.980206,943.00874 41.271406,944.70878 34.880006,949.94608 C 29.656306,954.22648 25.737806,960.62678 24.739406,966.50928 L 24.000606,970.86248 L 18.835906,971.16258 C 14.527306,971.41298 13.495306,971.13378 12.609306,969.47838 z M 69.674906,920.71124 C 70.686706,919.49384 71.135706,914.59834 71.383706,902.07864 C 71.568806,892.73894 71.438606,883.59644 71.094406,881.76204 C 69.955106,875.68864 69.011706,875.36244 52.586706,875.36244 C 39.929906,875.36244 37.466906,875.61764 35.698406,877.11244 C 33.643706,878.84914 20.547306,913.24994 20.547306,916.91054 C 20.547306,917.89744 21.292006,919.52794 22.202306,920.53374 C 23.711006,922.20084 25.821006,922.36244 46.079806,922.36244 C 65.516906,922.36244 68.474406,922.15544 69.674906,920.71124 z M 120.7186,920.70744 C 123.4216,918.26124 123.0502,915.45404 117.4878,896.29204 C 114.0385,884.40984 111.7754,878.30544 110.377,877.11244 C 108.6471,875.63664 106.2453,875.36244 95.047303,875.36244 C 75.935806,875.36244 77.047306,873.88084 77.047306,899.35614 C 77.047306,918.16704 77.178006,919.62034 78.988406,920.94364 C 80.503006,922.05074 85.100006,922.36244 99.909703,922.36244 C 116.1676,922.36244 119.1521,922.12504 120.7186,920.70744 z M 175.3473,921.16244 C 176.0073,920.50244 176.5473,918.45934 176.5473,916.62214 C 176.5473,911.51744 166.7423,878.06224 164.8213,876.61244 C 163.6365,875.71824 157.9533,875.36244 144.8562,875.36244 C 127.8806,875.36244 126.4017,875.50814 124.5473,877.36244 C 123.4473,878.46244 122.5473,879.80634 122.5473,880.34884 C 122.5473,882.74004 132.8705,918.08794 134.1602,920.11244 C 135.5653,922.31844 135.9708,922.36244 154.8704,922.36244 C 168.5302,922.36244 174.497,922.01274 175.3473,921.16244 z M 225.97586,920.79104 C 228.42466,918.34214 227.85876,914.14614 222.61896,895.90294 C 219.0392,883.43914 217.1618,878.46874 215.5368,877.15294 C 213.5961,875.58144 211.1379,875.36244 195.4365,875.36244 C 178.8806,875.36244 177.3982,875.51154 175.5473,877.36244 C 174.4473,878.46244 173.5473,880.18164 173.5473,881.18284 C 173.5473,884.05514 183.5506,917.61234 185.1521,920.11244 C 186.5634,922.31564 186.9869,922.36244 205.4989,922.36244 C 221.3524,922.36244 224.65806,922.10874 225.97586,920.79104 z M 248.54726,968.89528 C 248.54726,967.71028 250.69106,967.37358 259.69066,967.14528 C 271.24606,966.85208 271.50706,966.75258 272.95286,962.08878 C 273.45586,960.46598 274.97206,960.33838 290.77226,960.58878 L 308.04185,960.86248 L 307.69755,964.86248 C 307.50815,967.06248 307.14525,969.19998 306.89125,969.61248 C 306.63715,970.02498 293.40576,970.36248 277.48826,970.36248 C 252.71666,970.36248 248.54726,970.15108 248.54726,968.89528 z M 369.77175,966.11248 C 369.28045,963.77498 369.05555,961.52498 369.27185,961.11248 C 369.73695,960.22578 401.93655,960.08508 402.81735,960.96588 C 403.14925,961.29778 402.45955,963.54778 401.28475,965.96588 L 399.14875,970.36248 L 384.90685,970.36248 L 370.66495,970.36248 L 369.77175,966.11248 z M 272.97056,951.02308 C 272.68786,950.28648 272.58946,936.97384 272.75186,921.43964 L 273.04726,893.19564 L 276.31306,890.27904 L 279.57886,887.36244 L 338.11265,887.36244 C 403.60052,887.36244 401.53415,887.14914 403.55755,894.11824 C 404.25693,896.52724 404.53807,907.49084 404.34592,924.86244 L 404.04725,951.86248 L 384.38215,952.13338 L 364.71705,952.40418 L 360.05475,948.36898 C 354.19475,943.29714 351.49185,941.91654 344.29725,940.32004 C 334.63225,938.17544 323.52575,941.56594 316.60105,948.77488 L 313.15495,952.36248 L 293.31976,952.36248 C 277.66816,952.36248 273.37606,952.07998 272.97056,951.02308 z" />
  <path
     id="path3513"
     style="fill:#010101"
     d="M 39.173026,835.03284 C 31.429526,831.93134 27.027826,825.38064 27.027826,816.95824 C 27.027826,805.66974 33.538326,798.88884 44.918426,798.32444 C 52.764126,797.93534 56.846926,799.67664 61.373626,805.34284 C 64.805826,809.63904 66.024526,817.55274 64.135326,823.27704 C 61.008626,832.75114 48.354726,838.71034 39.173026,835.03284 z M 198.52782,834.20684 C 193.87212,832.05134 189.60362,827.78984 188.09142,823.78764 C 185.81442,817.76094 187.53562,808.51624 191.81592,803.78294 C 196.53622,798.56324 207.25862,796.50104 214.32552,799.45374 C 218.73202,801.29494 223.71042,807.21034 225.05462,812.20224 C 229.17272,827.49554 213.00302,840.90864 198.52782,834.20684 z M 274.52778,834.20684 C 269.87208,832.05134 265.60358,827.78984 264.09138,823.78764 C 261.81438,817.76094 263.53558,808.51624 267.81588,803.78294 C 272.53618,798.56324 283.25858,796.50104 290.32548,799.45374 C 294.73198,801.29494 299.71038,807.21034 301.05458,812.20224 C 305.17268,827.49554 289.00298,840.90864 274.52778,834.20684 z M 390.03487,834.50974 C 377.88007,829.23874 374.15067,813.36504 382.81587,803.78294 C 390.37977,795.41864 406.55707,796.36424 412.84297,805.53794 C 418.11267,813.22864 417.99257,821.24194 412.49957,828.43594 C 407.11347,835.48984 397.98587,837.95774 390.03487,834.50974 z M 491.03491,834.50974 C 478.8801,829.23874 475.15071,813.36504 483.81591,803.78294 C 489.03247,798.01434 500.9495,796.24464 507.97792,800.19484 C 512.41897,802.69084 516.63589,808.82374 517.52351,814.07744 C 519.9181,828.25094 504.32979,840.27514 491.03491,834.50974 z M 12.694526,814.43604 C 12.327826,814.06934 12.027826,804.62844 12.027826,793.45614 L 12.027826,773.14284 L 19.184826,754.02984 C 24.585026,739.60824 26.855526,734.70014 28.434826,734.03394 C 30.693626,733.08124 78.037026,730.05144 79.277826,730.78024 C 79.690326,731.02254 80.027826,745.80334 80.027826,763.62654 C 80.027826,794.64174 80.110826,796.07674 81.962126,797.06754 C 83.222326,797.74204 101.53132,798.10274 134.50422,798.10274 L 185.11212,798.10274 L 182.65172,802.35274 C 181.29842,804.69024 179.68712,808.51524 179.07102,810.85274 L 177.95072,815.10274 L 126.17192,815.10274 L 74.393026,815.10274 L 72.665126,809.62104 C 70.308326,802.14444 65.522126,796.18744 58.992226,792.60354 C 54.272626,790.01324 52.505526,789.60774 46.027826,789.62874 C 39.862426,789.64874 37.613526,790.13084 33.389926,792.33794 C 26.554826,795.90964 21.613126,801.87004 19.421826,809.18544 C 17.974426,814.01744 17.256126,815.10274 15.505226,815.10274 C 14.326026,815.10274 13.061126,814.80274 12.694526,814.43604 z M 41.966126,772.09844 C 52.107226,771.01364 60.782226,769.74834 61.243826,769.28664 C 61.705526,768.82504 61.958326,761.73224 61.805526,753.52504 L 61.527826,738.60274 L 54.905626,738.30994 C 45.372226,737.88844 30.105526,739.59644 28.430026,741.27194 C 26.869126,742.83284 17.058226,767.70864 17.039626,770.15274 C 17.023126,772.31354 19.045026,774.10574 21.477826,774.08674 C 22.605326,774.07794 31.825026,773.18324 41.966126,772.09844 z M 233.68172,811.33954 C 233.35072,809.26984 231.72812,805.44484 230.07592,802.83954 L 227.07192,798.10274 L 244.09198,798.10274 L 261.11208,798.10274 L 258.65168,802.35274 C 257.29838,804.69024 255.68708,808.51524 255.07098,810.85274 L 253.95068,815.10274 L 244.11708,815.10274 L 234.28342,815.10274 L 233.68172,811.33954 z M 309.68168,811.33954 C 309.35068,809.26984 307.72808,805.44484 306.07588,802.83954 L 303.07188,798.10274 L 321.59747,798.10274 L 340.12317,798.10274 L 339.82547,804.31594 L 339.52777,810.52904 L 332.52777,812.76554 C 327.92127,814.23724 322.92147,815.01914 317.90557,815.05234 L 310.28338,815.10274 L 309.68168,811.33954 z M 351.69447,809.43604 C 351.32777,809.06934 351.02777,806.36934 351.02777,803.43604 L 351.02777,798.10274 L 363.52777,798.10274 C 370.40277,798.10274 376.02777,798.37074 376.02777,798.69834 C 376.02777,799.02594 375.13897,800.54214 374.05267,802.06774 C 372.96637,803.59334 371.62747,806.02524 371.07747,807.47214 C 370.10127,810.03964 369.86497,810.10274 361.21917,810.10274 C 356.34727,810.10274 352.06107,809.80274 351.69447,809.43604 z M 423.1622,807.05844 C 422.57857,805.38414 421.15387,802.68414 419.99627,801.05844 L 417.89157,798.10274 L 447.45968,798.10274 C 463.72213,798.10274 477.02777,798.37074 477.02777,798.69834 C 477.02777,799.02594 476.13898,800.54214 475.05268,802.06774 C 473.96637,803.59334 472.62751,806.02524 472.07743,807.47214 L 471.07727,810.10274 L 447.65035,810.10274 L 424.22342,810.10274 L 423.1622,807.05844 z M 524.16221,807.05844 C 523.57853,805.38414 522.15387,802.68414 520.99629,801.05844 L 518.89159,798.10274 L 531.45969,798.10274 L 544.02778,798.10274 L 544.02778,804.10274 L 544.02778,810.10274 L 534.62561,810.10274 L 525.22343,810.10274 L 524.16221,807.05844 z M 95.027823,749.60664 L 95.027823,710.10274 L 217.53942,710.10274 L 340.05097,710.10274 L 339.78937,749.35274 L 339.52777,788.60274 L 217.27782,788.85664 L 95.027823,789.11064 L 95.027823,749.60664 z M 363.69447,788.43604 C 363.32777,788.06934 363.02777,770.29434 363.02777,748.93604 L 363.02777,710.10274 L 453.52777,710.10274 L 544.02778,710.10274 L 544.02778,749.60274 L 544.02778,789.10274 L 454.19444,789.10274 C 404.78607,789.10274 364.06107,788.80274 363.69447,788.43604 z" />
  <path
     id="path3485"
     style="fill:#010101"
     d="M 435.05393,695.67554 C 425.16248,692.30274 420.85788,686.10664 420.85788,675.24134 C 420.85788,669.64924 421.27658,668.20474 424.10788,664.02884 C 428.36413,657.75144 433.47667,655.11884 441.4363,655.10604 C 453.56861,655.08644 461.85788,663.50264 461.85788,675.84024 C 461.85788,687.67184 456.03984,694.13604 442.85788,696.95034 C 441.48288,697.24394 437.9711,696.67024 435.05393,695.67554 z M 583.53419,696.14064 C 577.65297,694.58894 570.29049,687.81224 568.84908,682.62394 C 566.74324,675.04384 568.29662,667.44404 573.06089,662.01784 C 576.86075,657.69004 580.02132,655.99414 585.94217,655.10624 C 592.24119,654.16164 598.19287,656.00144 603.06744,660.40004 C 608.14928,664.98564 609.85789,668.93704 609.85789,676.10394 C 609.85789,685.20454 604.50216,693.02734 596.63329,695.42044 C 590.46756,697.29564 588.35268,697.41184 583.53419,696.14064 z M 400.40828,673.00374 C 398.90128,671.49674 398.75918,669.05754 399.10958,650.70394 L 399.50288,630.09624 L 407.68038,607.69254 C 412.17798,595.37054 415.85788,584.02384 415.85788,582.47774 C 415.85788,580.69004 415.12978,579.27694 413.85788,578.59624 C 412.31638,577.77124 411.85788,576.50244 411.85788,573.06104 L 411.85788,568.59624 L 511.92362,568.59624 C 578.64243,568.59624 612.63052,568.93934 613.91328,569.62584 C 617.0288,571.29324 618.71513,575.65944 625.45024,599.49664 L 631.83564,622.09624 L 631.84676,644.83044 L 631.85789,667.56464 L 629.09467,670.65724 C 627.13422,672.85134 625.33796,673.80014 622.91172,673.92304 C 619.70395,674.08544 619.4406,673.85554 618.66308,670.21394 C 615.42189,655.03334 601.6814,644.61414 586.50917,645.83204 C 579.59071,646.38734 575.27788,648.25214 569.48819,653.19154 C 564.27775,657.63684 562.95312,659.70394 560.33668,667.47254 L 558.10585,674.09624 L 514.75954,674.09624 L 471.41323,674.09624 L 470.7037,669.93994 C 467.8986,653.50824 450.6995,642.55594 433.99415,646.56354 C 429.31217,647.68674 421.18878,652.78724 418.08538,656.55234 C 415.39838,659.81234 412.46338,666.26224 411.92238,670.09624 C 411.36448,674.04964 411.30408,674.09974 406.72918,674.39604 C 403.41148,674.61094 401.62118,674.21664 400.40828,673.00374 z M 456.24717,624.06404 C 458.60905,621.70214 459.02121,617.44544 458.67653,598.97394 C 458.44099,586.35074 457.99995,581.46664 456.98544,580.24664 C 455.81604,578.84044 453.30093,578.59844 439.98544,578.61154 C 431.39028,578.61994 423.81288,578.97324 423.14668,579.39654 C 421.64868,580.34854 420.31288,583.52644 413.36148,602.67574 C 410.33448,611.01424 407.85788,618.68254 407.85788,619.71644 C 407.85788,620.75034 408.75788,622.49624 409.85788,623.59624 C 411.73348,625.47174 413.19118,625.59624 433.28645,625.59624 C 451.20056,625.59624 454.96631,625.34494 456.24717,624.06404 z M 508.02914,623.94124 C 509.05493,623.01294 509.85471,620.92734 509.85067,619.19124 C 509.84057,614.85554 499.33255,580.51224 497.69934,579.47704 C 496.96154,579.00944 490.03139,578.61994 482.29901,578.61154 C 471.71614,578.60004 467.7602,578.94714 466.29901,580.01564 C 464.48966,581.33864 464.35788,582.79104 464.35788,601.41064 C 464.35788,619.65084 464.52338,621.56914 466.26287,623.49124 C 468.0723,625.49064 469.1217,625.59624 487.18413,625.59624 C 503.47564,625.59624 506.46243,625.35904 508.02914,623.94124 z M 562.28646,624.02474 C 563.15075,623.16054 563.85789,621.02244 563.85789,619.27354 C 563.85789,615.42564 554.42398,581.98324 552.77955,580.00184 C 551.85096,578.88294 547.66488,578.59624 532.2585,578.59624 L 512.90399,578.59624 L 511.28165,581.07224 C 509.736,583.43114 509.92372,584.48284 515.25339,603.32224 C 518.73506,615.62934 521.48801,623.56824 522.54381,624.34624 C 523.75472,625.23854 529.45902,625.59624 542.47759,625.59624 C 557.72375,625.59624 560.97278,625.33844 562.28646,624.02474 z M 613.02915,623.94124 C 615.75947,621.47034 615.32068,617.65864 610.28729,600.12364 C 605.63218,583.90644 604.40971,580.66464 602.45819,579.36154 C 601.85302,578.95744 593.06832,578.61994 582.93663,578.61154 C 567.18452,578.59844 564.2504,578.83604 562.68663,580.25124 C 561.68082,581.16144 560.86533,582.84894 560.87441,584.00124 C 560.9086,588.33564 571.7929,623.07554 573.51014,624.33124 C 574.75323,625.24014 580.30076,625.59624 593.22028,625.59624 C 608.54765,625.59624 611.47022,625.35204 613.02915,623.94124 z" />
  <path
     id="path3481"
     style="fill:#010101"
     d="M 47.999826,691.68314 C 45.736026,690.65504 42.597126,688.12704 41.024626,686.06544 C 38.673626,682.98304 38.107226,681.14224 37.837626,675.70654 C 37.447726,667.84364 39.189326,663.77784 44.903126,659.21234 C 48.007226,656.73214 49.825826,656.11394 54.985526,655.78544 C 63.242126,655.25964 68.532926,657.81894 72.667526,664.33864 C 83.005326,680.63964 65.765026,699.75064 47.999826,691.68314 z M 209.11592,692.17494 C 205.35102,690.48954 200.07182,684.98014 198.67722,681.28114 C 197.07042,677.01914 197.44002,670.58044 199.55942,665.91234 C 203.55832,657.10444 216.38622,652.88754 225.31872,657.44454 C 236.39328,663.09444 239.61228,675.77924 232.47262,685.63534 C 227.41822,692.61284 216.76012,695.59694 209.11592,692.17494 z M 285.11588,692.17494 C 281.35098,690.48954 276.07178,684.98014 274.67718,681.28114 C 273.07038,677.01914 273.43998,670.58044 275.55938,665.91234 C 279.55828,657.10444 292.38618,652.88754 301.31868,657.44454 C 312.39327,663.09444 315.61227,675.77924 308.47258,685.63534 C 303.41818,692.61284 292.76008,695.59694 285.11588,692.17494 z M 85.308126,672.84624 C 85.073826,672.43374 84.136126,669.84624 83.224226,667.09624 C 82.312326,664.34624 79.968826,659.91844 78.016426,657.25674 C 68.676226,644.52314 47.391926,643.49654 36.475926,655.25294 C 33.338426,658.63214 30.137326,664.81174 29.145826,669.40374 C 28.530326,672.25454 28.064626,672.66884 25.773826,672.40374 L 23.115926,672.09624 L 22.845826,651.41984 L 22.575826,630.74354 L 29.749126,611.58684 C 35.363326,596.59374 37.391826,592.25174 39.082226,591.60904 C 41.452326,590.70794 88.656326,587.63224 89.865926,588.30014 C 90.278426,588.52794 90.615926,603.22274 90.615926,620.95524 C 90.615926,644.69824 90.932226,653.51254 91.815926,654.39624 C 92.718026,655.29834 105.74923,655.59624 144.31592,655.59624 C 172.53092,655.59624 195.61592,655.80124 195.61592,656.05184 C 195.61592,656.30234 194.53702,658.09724 193.21842,660.04034 C 191.89982,661.98344 190.27992,665.82844 189.61872,668.58474 L 188.41642,673.59624 L 137.07522,673.59624 C 108.83753,673.59624 85.542326,673.25874 85.308126,672.84624 z M 52.809626,629.67324 C 62.541226,628.63404 70.978726,627.49004 71.559626,627.13104 C 72.225226,626.71964 72.615926,620.94064 72.615926,611.50584 C 72.615926,598.88894 72.371426,596.43964 71.062126,595.93714 C 70.207426,595.60924 63.001326,595.75814 55.048326,596.26804 C 44.562926,596.94024 40.179626,597.60394 39.101226,598.68234 C 37.480826,600.30274 27.646926,625.12774 27.627726,627.64624 C 27.610226,629.94684 29.683726,631.59844 32.565926,631.57944 C 33.968426,631.57024 43.078126,630.71244 52.809626,629.67324 z M 245.30628,672.84624 C 245.07098,672.43374 244.58898,670.48814 244.23508,668.52274 C 243.88108,666.55734 242.25688,662.84484 240.62568,660.27274 L 237.65998,655.59624 L 254.63788,655.59624 C 263.97578,655.59624 271.61588,655.80124 271.61588,656.05184 C 271.61588,656.30234 270.53698,658.09724 269.21838,660.04034 C 267.89978,661.98344 266.27988,665.82844 265.61868,668.58474 L 264.41638,673.59624 L 255.07518,673.59624 C 249.93748,673.59624 245.54148,673.25874 245.30628,672.84624 z M 321.38877,672.97984 C 321.10817,672.49384 320.58897,670.48814 320.23507,668.52274 C 319.88107,666.55734 318.25687,662.84484 316.62567,660.27274 L 313.65997,655.59624 L 332.18557,655.59624 L 350.71127,655.59624 L 350.41357,661.75754 L 350.11587,667.91884 L 343.11587,670.31684 C 335.76697,672.83434 322.26077,674.48974 321.38877,672.97984 z M 105.61593,607.09624 L 105.61593,567.59624 L 228.11592,567.59624 L 350.61587,567.59624 L 350.61587,607.09624 L 350.61587,646.59624 L 228.11592,646.59624 L 105.61593,646.59624 L 105.61593,607.09624 z" />
  <path
     id="path3455"
     style="fill:#010101"
     d="M 55.82126,548.2704 C 48.58166,544.5051 45.32126,539.1239 45.32126,530.9402 C 45.32126,525.11714 46.61086,521.24994 49.63786,517.99574 C 57.90016,509.11304 73.48016,510.08164 79.96516,519.88104 C 82.05486,523.03884 82.83296,525.59274 83.11196,530.2095 C 83.44856,535.7806 83.18356,536.7904 80.22186,541.2225 C 78.08376,544.4221 75.56016,546.7383 72.89126,547.9505 C 67.90316,550.2161 59.85236,550.3669 55.82126,548.2704 z M 216.82126,548.4553 C 212.43656,546.5416 206.54656,539.5609 205.75456,535.3393 C 204.05876,526.29974 208.05226,517.60394 215.57096,513.96414 C 233.89616,505.09314 252.02702,525.52484 240.25306,541.7784 C 235.03676,548.9793 224.74266,551.9126 216.82126,548.4553 z M 334.82121,548.2736 C 329.70821,545.6198 326.36631,541.6619 324.65521,536.2336 C 323.23271,531.7209 323.18881,530.3873 324.32901,526.31504 C 326.80381,517.47614 334.11901,511.82414 343.03141,511.86494 C 353.86291,511.91464 361.33801,518.92654 362.12251,529.7731 C 362.56981,535.957 361.43811,539.0416 356.85101,544.1413 C 351.93331,549.6086 341.25311,551.6119 334.82121,548.2736 z M 435.82121,548.2736 C 430.70816,545.6198 427.36633,541.6619 425.65521,536.2336 C 424.23271,531.7209 424.18891,530.3873 425.32901,526.31504 C 427.80379,517.47614 435.11905,511.82414 444.03137,511.86494 C 454.86287,511.91464 462.33796,518.92654 463.12253,529.7731 C 463.56984,535.957 462.43815,539.0416 457.85102,544.1413 C 452.93332,549.6086 442.25315,551.6119 435.82121,548.2736 z M 32.57126,528.75784 C 30.34106,527.91494 30.32106,527.72854 30.29436,507.62524 L 30.26746,487.34304 L 37.51176,467.98561 C 43.00536,453.30601 45.25276,448.43931 46.81176,447.84661 C 49.05216,446.99481 96.34886,443.94671 97.57126,444.57531 C 97.98376,444.78751 98.32126,459.46951 98.32126,477.20204 C 98.32126,500.94504 98.63756,509.75934 99.52126,510.64304 C 100.42336,511.54514 113.45456,511.84304 152.02126,511.84304 C 180.23626,511.84304 203.32126,512.10954 203.32126,512.43524 C 203.32126,512.76104 202.47046,514.10924 201.43046,515.43124 C 200.39056,516.75334 198.72916,520.54084 197.73856,523.84794 L 195.93746,529.8608 L 144.46256,529.6019 L 92.98766,529.343 L 91.12806,523.84304 C 85.62196,507.55794 69.98026,499.20894 55.32126,504.73064 C 45.61116,508.38824 38.95986,515.90364 36.86756,525.58154 C 36.02636,529.4725 35.49726,529.8636 32.57126,528.75784 z M 61.38846,485.96644 C 70.50036,484.98774 78.48786,483.85804 79.13846,483.45604 C 79.96366,482.94604 80.32126,478.19824 80.32126,467.75261 C 80.32126,455.18911 80.07336,452.68511 78.78026,452.18891 C 77.93266,451.86361 70.69746,452.04151 62.70206,452.58411 C 52.27156,453.29201 47.74796,453.98771 46.68896,455.04681 C 44.21906,457.51661 35.12316,482.91754 35.77646,485.52044 C 36.50106,488.40764 38.35786,488.44004 61.38846,485.96644 z M 253.08752,529.2158 C 252.81052,528.73584 252.29432,526.73494 251.94042,524.76954 C 251.58642,522.80414 249.96222,519.09164 248.33102,516.51954 L 245.36536,511.84304 L 263.89092,511.84304 L 282.41662,511.84304 L 282.11892,518.09304 L 281.82122,524.34304 L 274.82122,526.67824 C 267.47482,529.1289 253.94862,530.7083 253.08752,529.2158 z M 297.32122,517.84304 L 297.32122,511.84304 L 309.91942,511.84304 L 322.51761,511.84304 L 320.36012,515.09304 C 319.17352,516.88054 317.73532,519.58054 317.16412,521.09304 C 316.13262,523.82434 316.06192,523.84304 306.72342,523.84304 L 297.32122,523.84304 L 297.32122,517.84304 z M 368.86311,521.15404 C 368.49191,519.67504 367.31811,517.24314 366.25471,515.74964 C 365.19131,514.25614 364.32121,512.76624 364.32121,512.43864 C 364.32121,512.11104 377.64041,511.84304 393.91941,511.84304 L 423.51761,511.84304 L 421.36011,515.09304 C 420.17351,516.88054 418.73531,519.58054 418.16411,521.09304 L 417.12561,523.84304 L 393.33181,523.84304 L 369.53801,523.84304 L 368.86311,521.15404 z M 469.86313,521.15404 C 469.49194,519.67504 468.31815,517.24314 467.25472,515.74964 C 466.19129,514.25614 465.32121,512.76624 465.32121,512.43864 C 465.32121,512.11104 470.94621,511.84304 477.82121,511.84304 L 490.32121,511.84304 L 490.32121,517.84304 L 490.32121,523.84304 L 480.42962,523.84304 L 470.53803,523.84304 L 469.86313,521.15404 z M 113.32126,463.34301 L 113.32126,423.84301 L 197.82126,423.84301 L 282.32122,423.84301 L 282.32122,463.34301 L 282.32122,502.84304 L 197.82126,502.84304 L 113.32126,502.84304 L 113.32126,463.34301 z M 309.32122,463.34301 L 309.32122,423.84301 L 399.82121,423.84301 L 490.32121,423.84301 L 490.32121,463.34301 L 490.32121,502.84304 L 399.82121,502.84304 L 309.32122,502.84304 L 309.32122,463.34301 z" />
  <path
     id="path3431"
     style="fill:#010101"
     d="M 258.15839,400.379 C 249.51919,398.1268 244.45459,391.2763 244.45459,381.84292 C 244.45459,375.48612 246.30149,370.99102 250.29319,367.63212 C 259.92819,359.52482 275.10049,362.28272 280.33349,373.09262 C 283.60209,379.84482 283.21589,386.47772 279.20459,392.4799 C 274.25819,399.8813 266.87649,402.6518 258.15839,400.379 z M 414.9546,398.9659 C 408.2798,394.8063 404.44918,388.80612 404.46018,382.52782 C 404.48106,370.60112 413.45076,362.17192 425.14441,363.09002 C 437.47889,364.05842 446.13433,376.19322 442.45104,387.35372 C 440.89384,392.072 435.87061,397.7712 431.75234,399.4919 C 427.01076,401.4731 418.55273,401.2082 414.9546,398.9659 z M 231.20459,379.76092 C 229.62869,378.84472 229.45459,376.72122 229.45459,358.41402 L 229.45459,338.08452 L 236.00319,320.71402 C 239.60489,311.16022 243.20149,302.35192 243.99559,301.13992 C 244.79429,299.92092 246.89499,298.68792 248.69699,298.38042 C 253.40109,297.57762 296.50168,295.22332 297.01918,295.74082 C 297.25868,295.98032 297.45458,310.90312 297.45458,328.90252 C 297.45458,357.82222 297.63858,361.69952 299.03638,362.23592 C 299.90638,362.56972 323.53136,362.84292 351.53638,362.84292 C 380.0788,362.84292 402.4546,363.22852 402.4546,363.72042 C 402.4546,364.20312 401.7908,365.14892 400.97948,365.82222 C 400.16817,366.49562 398.50329,370.15472 397.27978,373.95362 L 395.05519,380.86072 L 343.50489,380.60182 L 291.95458,380.34292 L 290.27788,375.10842 C 286.66289,363.82302 277.31629,355.74512 266.09359,354.20692 C 258.17479,353.12152 246.14229,358.30442 241.23979,364.91252 C 240.19129,366.32582 238.29249,370.35682 237.02029,373.87042 C 234.54249,380.71342 233.92269,381.34122 231.20459,379.76092 z M 258.93049,337.28762 C 267.74379,336.43212 275.96709,335.31682 277.20459,334.80902 C 279.39739,333.90922 279.45459,333.50302 279.45459,318.83292 C 279.45459,306.30852 279.20009,303.68242 277.93949,303.19872 C 275.17559,302.13812 247.27909,304.58852 245.87029,306.01562 C 243.47169,308.44532 234.27969,334.00972 234.90649,336.50732 C 235.62929,339.38722 236.87969,339.42782 258.93049,337.28762 z M 452.12127,380.17622 C 451.7546,379.80952 451.4546,378.55472 451.4546,377.38772 C 451.4546,375.20502 449.26887,370.43312 446.05217,365.59292 L 444.22458,362.84292 L 462.88731,362.84292 L 481.55003,362.84292 L 481.25232,369.09292 L 480.9546,375.34292 L 472.9546,378.02752 C 465.34125,380.58242 453.72547,381.78042 452.12127,380.17622 z M 312.45459,314.34292 L 312.45459,274.84292 L 396.95459,274.84292 L 481.4546,274.84292 L 481.4546,314.34292 L 481.4546,353.84292 L 396.95459,353.84292 L 312.45459,353.84292 L 312.45459,314.34292 z" />
  <path
     id="path3549"
     style="fill:#010101"
     d="M 17.382268,1112.9582 C 16.651868,1111.5935 16.382368,1104.2247 16.586068,1091.1877 L 16.893968,1071.4801 L 25.143968,1048.6248 C 29.681468,1036.0543 33.393968,1024.5751 33.393968,1023.1153 C 33.393968,1021.5442 32.577868,1019.9515 31.393968,1019.2122 C 29.876168,1018.2643 29.393968,1016.8801 29.393968,1013.4716 L 29.393968,1008.9801 L 177.84696,1008.9801 C 290.81352,1008.9801 326.92661,1009.2657 328.92181,1010.1748 C 330.36401,1010.8319 332.15921,1012.5594 332.91131,1014.0137 C 333.66341,1015.4681 337.22961,1027.0953 340.83631,1039.852 L 347.39391,1063.046 L 347.39391,1085.0627 C 347.39391,1109.212 346.90081,1111.6991 341.68421,1113.8598 C 339.77611,1114.6502 332.01331,1114.9348 317.38711,1114.7507 L 295.89392,1114.4801 L 295.54202,1111.9835 C 295.34852,1110.6103 293.95272,1106.7576 292.44012,1103.4218 C 289.46262,1096.8549 283.74972,1091.3315 276.81682,1088.3166 C 271.83012,1086.1481 259.29842,1086.0741 254.39392,1088.1842 C 245.65042,1091.9462 237.48616,1102.1111 235.87776,1111.2381 L 235.21546,1114.9961 L 177.08226,1114.7381 L 118.94906,1114.4801 L 118.23966,1110.3238 C 116.69166,1101.2545 109.79556,1092.8363 100.51636,1088.6886 C 95.083163,1086.26 84.874368,1085.8563 79.129668,1087.8429 C 70.042968,1090.9852 61.110368,1101.1685 59.582468,1110.1269 L 58.839968,1114.4801 L 38.663168,1114.7507 C 19.163868,1115.0121 18.449268,1114.9519 17.382268,1112.9582 z M 74.521568,1064.3264 C 75.586068,1063.0438 75.893968,1058.0893 75.893968,1042.2458 C 75.893968,1023.1795 75.764668,1021.7243 73.952868,1020.3995 C 72.478568,1019.3215 68.367068,1018.9801 56.857868,1018.9801 C 43.638068,1018.9801 41.499768,1019.2057 40.104268,1020.7477 C 38.250068,1022.7966 25.393968,1057.4042 25.393968,1060.3468 C 25.393968,1061.4335 26.138668,1063.1456 27.048968,1064.1514 C 28.557668,1065.8185 30.667668,1065.9801 50.926468,1065.9801 C 70.377868,1065.9801 73.320268,1065.7739 74.521568,1064.3264 z M 125.56526,1064.3251 C 126.60206,1063.3868 127.38316,1061.3298 127.36916,1059.5751 C 127.33376,1055.1691 116.87026,1020.8967 115.24626,1019.8676 C 114.50246,1019.3963 107.55116,1019.0038 99.798963,1018.9954 C 81.012368,1018.975 81.996668,1017.8513 81.573768,1039.8014 C 81.226868,1057.8087 81.649368,1062.0927 84.004668,1064.448 C 86.371368,1066.8146 122.93376,1066.7065 125.56526,1064.3251 z M 176.56526,1064.3251 C 177.57106,1063.4149 178.39396,1061.8051 178.39396,1060.7478 C 178.39396,1057.1793 168.20446,1022.4953 166.63746,1020.7301 C 165.26356,1019.1824 162.94376,1018.9801 146.56776,1018.9801 C 121.69306,1018.9801 121.74186,1018.9294 127.44646,1038.8309 C 132.37666,1056.0307 134.55566,1062.369 136.17826,1064.2301 C 137.52846,1065.7788 139.83356,1065.9801 156.22026,1065.9801 C 172.04646,1065.9801 175.00216,1065.7397 176.56526,1064.3251 z M 227.96646,1063.5097 C 229.50736,1061.158 229.31586,1060.0891 223.98026,1041.2597 C 220.53626,1029.1059 217.72696,1020.9982 216.69356,1020.2301 C 215.49226,1019.3373 209.80056,1018.9801 196.77426,1018.9801 C 176.56216,1018.9801 175.39396,1019.3225 175.39396,1025.2462 C 175.39396,1029.2117 184.08056,1060.7309 186.00006,1063.7301 C 187.41246,1065.937 187.81286,1065.9801 206.89396,1065.9801 L 226.34786,1065.9801 L 227.96646,1063.5097 z M 278.19392,1064.7801 C 278.85392,1064.1201 279.39392,1062.077 279.39392,1060.2398 C 279.39392,1055.135 269.58892,1021.6799 267.66792,1020.2301 C 266.48312,1019.3359 260.79992,1018.9801 247.70282,1018.9801 C 230.72726,1018.9801 229.24836,1019.1257 227.39396,1020.9801 C 226.29396,1022.0801 225.39396,1023.424 225.39396,1023.9665 C 225.39396,1026.3577 235.71716,1061.7056 237.00686,1063.7301 C 238.41192,1065.9361 238.81742,1065.9801 257.71702,1065.9801 C 271.37682,1065.9801 277.34362,1065.6304 278.19392,1064.7801 z M 328.56521,1064.3251 C 331.25221,1061.8934 330.87991,1058.7227 325.79681,1040.7448 C 321.11831,1024.1978 319.94891,1021.0506 317.99421,1019.7454 C 317.38901,1019.3413 308.60432,1019.0038 298.47262,1018.9954 C 282.72052,1018.9823 279.78642,1019.2199 278.22262,1020.6351 C 277.21682,1021.5453 276.39392,1023.2645 276.39392,1024.4555 C 276.39392,1027.5771 286.28662,1061.0573 287.99872,1063.7301 C 289.40892,1065.9315 289.84312,1065.9801 308.08822,1065.9801 C 324.03721,1065.9801 327.00111,1065.7406 328.56521,1064.3251 z M 82.146808,1135.8845 C 77.077108,1134.3035 71.401708,1129.3046 69.412108,1124.6677 C 67.618708,1120.4882 67.638308,1110.0364 69.446008,1106.5859 C 71.124208,1103.3825 76.523308,1098.1495 80.031308,1096.3262 C 83.526208,1094.5097 93.866603,1094.6875 97.531303,1096.6271 C 101.4947,1098.7248 106.6463,1104.1898 107.97,1107.7007 C 109.4627,1111.6602 109.2898,1120.8474 107.6505,1124.6677 C 105.6632,1129.2992 100.2703,1133.9473 94.746403,1135.7897 C 89.090003,1137.6762 87.920508,1137.685 82.146808,1135.8845 z M 258.03126,1135.453 C 243.16056,1130.2785 239.15696,1111.7079 250.54696,1100.7375 C 257.99866,1093.5602 269.41346,1092.7258 277.30196,1098.7816 C 283.90056,1103.8471 285.42156,1106.6008 285.85466,1114.2656 C 286.14066,1119.3282 285.79696,1121.9569 284.51856,1124.4836 C 279.27076,1134.8557 268.78936,1139.1965 258.03126,1135.453 z" />
</svg>
