<?xml version="1.0" encoding="UTF-8" standalone="no"?>
<!-- Created with Inkscape (http://www.inkscape.org/) -->
<svg xmlns:svg="http://www.w3.org/2000/svg" xmlns="http://www.w3.org/2000/svg" version="1.1" width="17" height="22.02817" id="svg2">
  <defs id="defs6"/>
  <g transform="translate(3.7859e-07, -722.066)" id="layer1">
    <g transform="matrix(0.239437, 0, 0, 0.239437, 94.3367, 797.274)" id="g1563">
      <path d="M -368.9945,-226.10359 L -368.9945,-235.10359 L -372.9945,-235.10359 L -372.9945,-243.10359 L -376.9945,-243.10359 L -376.9945,-251.10359 L -380.9945,-251.10359 L -380.9945,-260.10359 L -385.9945,-260.10359 L -385.9945,-264.10359 L -389.9945,-264.10359 L -389.9945,-272.10359 L -380.9945,-272.10359 L -380.9945,-268.10359 L -376.9945,-268.10359 L -376.9945,-256.10359 L -372.9945,-256.10359 L -372.9945,-310.10359 L -364.9945,-310.10359 L -364.9945,-272.10359 L -360.9945,-272.10359 L -360.9945,-289.10359 L -351.9945,-289.10359 L -351.9945,-272.10359 L -347.9945,-272.10359 L -347.9945,-285.10359 L -339.9945,-285.10359 L -339.9945,-268.10359 L -335.9945,-268.10359 L -335.9945,-281.10359 L -330.9945,-281.10359 L -330.9945,-276.10359 L -326.9945,-276.10359 L -326.9945,-247.10359 L -330.9945,-247.10359 L -330.9945,-235.10359 L -335.9945,-235.10359 L -335.9945,-226.10359 L -368.9945,-226.10359 z" id="path1565" style="fill:#fefefe"/>
      <path d="M -372.9945,-222.10359 L -372.9945,-235.10359 L -376.9945,-235.10359 L -376.9945,-243.10359 L -380.9945,-243.10359 L -380.9945,-251.10359 L -385.9945,-251.10359 L -385.9945,-260.10359 L -389.9945,-260.10359 L -389.9945,-264.10359 L -393.9945,-264.10359 L -393.9945,-276.10359 L -380.9945,-276.10359 L -380.9945,-272.10359 L -376.9945,-272.10359 L -376.9945,-310.10359 L -372.9945,-310.10359 L -372.9945,-314.10359 L -364.9945,-314.10359 L -364.9945,-310.10359 L -360.9945,-310.10359 L -360.9945,-293.10359 L -351.9945,-293.10359 L -351.9945,-289.10359 L -339.9945,-289.10359 L -339.9945,-285.10359 L -330.9945,-285.10359 L -330.9945,-281.10359 L -326.9945,-281.10359 L -326.9945,-276.10359 L -322.9945,-276.10359 L -322.9945,-247.10359 L -326.9945,-247.10359 L -326.9945,-235.10359 L -330.9945,-235.10359 L -330.9945,-222.10359 L -372.9945,-222.10359 z M -335.9945,-226.10359 L -335.9945,-235.10359 L -330.9945,-235.10359 L -330.9945,-247.10359 L -326.9945,-247.10359 L -326.9945,-276.10359 L -330.9945,-276.10359 L -330.9945,-281.10359 L -335.9945,-281.10359 L -335.9945,-268.10359 L -339.9945,-268.10359 L -339.9945,-285.10359 L -347.9945,-285.10359 L -347.9945,-272.10359 L -351.9945,-272.10359 L -351.9945,-289.10359 L -360.9945,-289.10359 L -360.9945,-272.10359 L -364.9945,-272.10359 L -364.9945,-310.10359 L -372.9945,-310.10359 L -372.9945,-256.10359 L -376.9945,-256.10359 L -376.9945,-268.10359 L -380.9945,-268.10359 L -380.9945,-272.10359 L -389.9945,-272.10359 L -389.9945,-264.10359 L -385.9945,-264.10359 L -385.9945,-260.10359 L -380.9945,-260.10359 L -380.9945,-251.10359 L -376.9945,-251.10359 L -376.9945,-243.10359 L -372.9945,-243.10359 L -372.9945,-235.10359 L -368.9945,-235.10359 L -368.9945,-226.10359 L -335.9945,-226.10359 z" id="path1567" style="fill:#000000"/>
    </g>
  </g>
</svg>