<?xml version="1.0" encoding="UTF-8" standalone="no"?>
<!-- Created with Inkscape (http://www.inkscape.org/) -->

<svg
   xmlns:dc="http://purl.org/dc/elements/1.1/"
   xmlns:cc="http://creativecommons.org/ns#"
   xmlns:rdf="http://www.w3.org/1999/02/22-rdf-syntax-ns#"
   xmlns:svg="http://www.w3.org/2000/svg"
   xmlns="http://www.w3.org/2000/svg"
   xmlns:sodipodi="http://sodipodi.sourceforge.net/DTD/sodipodi-0.dtd"
   xmlns:inkscape="http://www.inkscape.org/namespaces/inkscape"
   version="1.1"
   width="17"
   height="22.02817"
   id="svg2"
   inkscape:version="0.47pre4 r22446"
   sodipodi:docname="1302118210.svg">
  <metadata
     id="metadata10">
    <rdf:RDF>
      <cc:Work
         rdf:about="">
        <dc:format>image/svg+xml</dc:format>
        <dc:type
           rdf:resource="http://purl.org/dc/dcmitype/StillImage" />
        <dc:title></dc:title>
      </cc:Work>
    </rdf:RDF>
  </metadata>
  <sodipodi:namedview
     pagecolor="#ffffff"
     bordercolor="#666666"
     borderopacity="1"
     objecttolerance="10"
     gridtolerance="10"
     guidetolerance="10"
     inkscape:pageopacity="0"
     inkscape:pageshadow="2"
     inkscape:window-width="762"
     inkscape:window-height="603"
     id="namedview8"
     showgrid="false"
     inkscape:zoom="10.713555"
     inkscape:cx="8.5"
     inkscape:cy="10.827405"
     inkscape:window-x="0"
     inkscape:window-y="0"
     inkscape:window-maximized="0"
     inkscape:current-layer="svg2" />
  <defs
     id="defs6">
    <inkscape:perspective
       sodipodi:type="inkscape:persp3d"
       inkscape:vp_x="0 : 11.014085 : 1"
       inkscape:vp_y="0 : 1000 : 0"
       inkscape:vp_z="17 : 11.014085 : 1"
       inkscape:persp3d-origin="8.5 : 7.3427232 : 1"
       id="perspective12" />
  </defs>
  <g
     transform="matrix(-1,0,0,-1,16.999705,744.09416)"
     id="layer1">
    <g
       transform="matrix(0.239437,0,0,0.239437,94.3367,797.274)"
       id="g1563">
      <path
         d="m -368.9945,-226.10359 0,-9 -4,0 0,-8 -4,0 0,-8 -4,0 0,-9 -5,0 0,-4 -4,0 0,-8 9,0 0,4 4,0 0,12 4,0 0,-54 8,0 0,38 4,0 0,-17 9,0 0,17 4,0 0,-13 8,0 0,17 4,0 0,-13 5,0 0,5 4,0 0,29 -4,0 0,12 -5,0 0,9 -33,0 z"
         id="path1565"
         style="fill:#fefefe" />
      <path
         d="m -372.9945,-222.10359 0,-13 -4,0 0,-8 -4,0 0,-8 -5,0 0,-9 -4,0 0,-4 -4,0 0,-12 13,0 0,4 4,0 0,-38 4,0 0,-4 8,0 0,4 4,0 0,17 9,0 0,4 12,0 0,4 9,0 0,4 4,0 0,5 4,0 0,29 -4,0 0,12 -4,0 0,13 -42,0 z m 37,-4 0,-9 5,0 0,-12 4,0 0,-29 -4,0 0,-5 -5,0 0,13 -4,0 0,-17 -8,0 0,13 -4,0 0,-17 -9,0 0,17 -4,0 0,-38 -8,0 0,54 -4,0 0,-12 -4,0 0,-4 -9,0 0,8 4,0 0,4 5,0 0,9 4,0 0,8 4,0 0,8 4,0 0,9 33,0 z"
         id="path1567"
         style="fill:#000000" />
    </g>
  </g>
</svg>
